M48
;Layer_Color=9474304
;FILE_FORMAT=2:5
INCH,LZ
;TYPE=PLATED
T01F00S00C0.01181
T04F00S00C0.02559
T05F00S00C0.02756
T07F00S00C0.03543
T08F00S00C0.03622
T09F00S00C0.05118
T10F00S00C0.07874
T11F00S00C0.12598
%
T01
X0185687Y0003543
X0187971Y0006752
X0191732Y0007087
X0203996Y0008327
X0207146
X0210296
X0210296Y0018169
X0207146
X0203996
Y0024075
X0207146
X0210296
X0217362Y0023859
X0242126Y0025591
X0245914Y0023622
X0190945Y0024213
Y0027362
Y0030512
X0188189Y0032087
Y0028937
Y0025787
Y0022638
X0147795Y0024172
Y0027322
Y0030472
X0145039Y0028897
Y0025747
X0142283Y0027322
Y0024172
Y0030472
X0142028Y0035433
X0139209Y0038265
X0142028Y0041339
Y0047244
X0134239Y0009055
X0096457Y0006299
X0094095Y0003937
X0091732Y0006299
X0067716Y0007087
X0064173
X0066142Y0003937
X0142028Y0051575
T04
X0049606Y0059551
X005748
T05
X0111417Y0064567
X0119291
X0127165
T07
X0049095Y0033263
X0059095Y0033263
X0059095Y0043263
X0049095
X0069095Y0043263
X0069095Y0033263
X0160433Y0058071
X0170433
T08
X0035433Y0021654
Y0031496
Y003937
Y0049213
T09
X0009252Y0024449
Y0044449
X0155354Y005315
X0175354
T10
X0071653Y0061811
X0088189
T11
X0051181Y0014764
X0200787Y0057087
M30
