G04*
G04 #@! TF.GenerationSoftware,Altium Limited,Altium Designer,23.8.1 (32)*
G04*
G04 Layer_Physical_Order=2*
G04 Layer_Color=3381759*
%FSLAX25Y25*%
%MOIN*%
G70*
G04*
G04 #@! TF.SameCoordinates,025227D9-4B7A-4FEB-AE1B-E4A00E2DEE92*
G04*
G04*
G04 #@! TF.FilePolarity,Positive*
G04*
G01*
G75*
%ADD10C,0.00787*%
%ADD11C,0.00591*%
%ADD12C,0.00394*%
%ADD13C,0.00984*%
%ADD14C,0.01575*%
%ADD81C,0.03937*%
%ADD82R,0.05906X0.05906*%
%ADD83C,0.05906*%
%ADD84C,0.13780*%
%ADD85O,0.07087X0.03937*%
%ADD86R,0.07874X0.07874*%
G04:AMPARAMS|DCode=87|XSize=86.61mil|YSize=47.24mil|CornerRadius=11.81mil|HoleSize=0mil|Usage=FLASHONLY|Rotation=270.000|XOffset=0mil|YOffset=0mil|HoleType=Round|Shape=RoundedRectangle|*
%AMROUNDEDRECTD87*
21,1,0.08661,0.02362,0,0,270.0*
21,1,0.06299,0.04724,0,0,270.0*
1,1,0.02362,-0.01181,-0.03150*
1,1,0.02362,-0.01181,0.03150*
1,1,0.02362,0.01181,0.03150*
1,1,0.02362,0.01181,-0.03150*
%
%ADD87ROUNDEDRECTD87*%
%ADD88C,0.05118*%
G04:AMPARAMS|DCode=89|XSize=51.18mil|YSize=51.18mil|CornerRadius=12.8mil|HoleSize=0mil|Usage=FLASHONLY|Rotation=180.000|XOffset=0mil|YOffset=0mil|HoleType=Round|Shape=RoundedRectangle|*
%AMROUNDEDRECTD89*
21,1,0.05118,0.02559,0,0,180.0*
21,1,0.02559,0.05118,0,0,180.0*
1,1,0.02559,-0.01280,0.01280*
1,1,0.02559,0.01280,0.01280*
1,1,0.02559,0.01280,-0.01280*
1,1,0.02559,-0.01280,-0.01280*
%
%ADD89ROUNDEDRECTD89*%
%ADD90O,0.10630X0.05906*%
%ADD91C,0.05591*%
%ADD92R,0.05591X0.05591*%
%ADD93R,0.03937X0.03937*%
G04:AMPARAMS|DCode=94|XSize=39.37mil|YSize=39.37mil|CornerRadius=9.84mil|HoleSize=0mil|Usage=FLASHONLY|Rotation=0.000|XOffset=0mil|YOffset=0mil|HoleType=Round|Shape=RoundedRectangle|*
%AMROUNDEDRECTD94*
21,1,0.03937,0.01968,0,0,0.0*
21,1,0.01968,0.03937,0,0,0.0*
1,1,0.01968,0.00984,-0.00984*
1,1,0.01968,-0.00984,-0.00984*
1,1,0.01968,-0.00984,0.00984*
1,1,0.01968,0.00984,0.00984*
%
%ADD94ROUNDEDRECTD94*%
%ADD95C,0.23622*%
%ADD96R,0.07874X0.07874*%
%ADD97C,0.02756*%
G36*
X165354Y50028D02*
X165387Y49369D01*
X165644Y48077D01*
X166148Y46860D01*
X166880Y45764D01*
X167323Y45276D01*
X174236Y38362D01*
X174964Y37703D01*
X176593Y36614D01*
X178405Y35864D01*
X180327Y35481D01*
X181307Y35433D01*
X190348D01*
X191109Y35282D01*
X191825Y34985D01*
X192470Y34554D01*
X193019Y34006D01*
X193450Y33361D01*
X193746Y32644D01*
X193898Y31884D01*
Y31496D01*
X193898Y20669D01*
X175013D01*
X174632Y20852D01*
X173903Y21281D01*
X173213Y21770D01*
X172567Y22315D01*
X172268Y22614D01*
X150567Y44315D01*
X150567Y44315D01*
X149889Y44993D01*
X148815Y46583D01*
X148063Y48347D01*
X147660Y50222D01*
X147640Y51181D01*
X147638D01*
X147624Y51471D01*
X147511Y52038D01*
X147289Y52573D01*
X146968Y53054D01*
X146558Y53464D01*
X146077Y53785D01*
X145542Y54007D01*
X144975Y54120D01*
X144685Y54134D01*
X142195D01*
X142028Y54156D01*
X141860Y54134D01*
X125596D01*
X124836Y54285D01*
X124119Y54582D01*
X123475Y55013D01*
X122926Y55561D01*
X122495Y56206D01*
X122198Y56923D01*
X122047Y57683D01*
Y62015D01*
X122558Y62681D01*
X122792Y63245D01*
X123096Y63261D01*
X123594Y63124D01*
X123739Y62398D01*
X124242Y61644D01*
X124996Y61140D01*
X125886Y60963D01*
X126665D01*
Y64567D01*
Y68171D01*
X125886D01*
X124996Y67994D01*
X124242Y67490D01*
X123739Y66736D01*
X123594Y66010D01*
X123096Y65872D01*
X122792Y65889D01*
X122558Y66453D01*
X122047Y67119D01*
Y69662D01*
X132551D01*
X132972Y68875D01*
X132814Y68638D01*
X132631Y67716D01*
Y61417D01*
X132814Y60496D01*
X133336Y59714D01*
X134118Y59192D01*
X135039Y59009D01*
X137402D01*
X138323Y59192D01*
X139105Y59714D01*
X139627Y60496D01*
X139810Y61417D01*
Y67716D01*
X139627Y68638D01*
X139469Y68875D01*
X139890Y69662D01*
X165354D01*
Y50028D01*
D02*
G37*
G36*
X254701Y53757D02*
X253914Y53600D01*
X253774Y53938D01*
X253298Y54558D01*
X252678Y55034D01*
X251956Y55333D01*
X251181Y55435D01*
X250106D01*
Y52441D01*
Y49447D01*
X251181D01*
X251956Y49549D01*
X252678Y49848D01*
X253298Y50324D01*
X253774Y50944D01*
X253914Y51281D01*
X254701Y51125D01*
Y19741D01*
X253914Y19585D01*
X253774Y19922D01*
X253298Y20542D01*
X252678Y21018D01*
X251956Y21317D01*
X251181Y21419D01*
X250106D01*
Y18425D01*
Y15431D01*
X251181D01*
X251956Y15533D01*
X252678Y15832D01*
X253298Y16308D01*
X253774Y16928D01*
X253914Y17266D01*
X254701Y17109D01*
Y1204D01*
X237066D01*
X236910Y1992D01*
X237984Y2437D01*
X239710Y3494D01*
X241250Y4809D01*
X242565Y6349D01*
X243623Y8075D01*
X244397Y9946D01*
X244870Y11915D01*
X245029Y13933D01*
X245018D01*
Y16183D01*
X245806Y16450D01*
X245914Y16308D01*
X246534Y15832D01*
X247257Y15533D01*
X248031Y15431D01*
X249106D01*
Y18425D01*
Y21419D01*
X248444D01*
X248237Y21691D01*
X248052Y22207D01*
X248299Y22634D01*
X248473Y23285D01*
Y23959D01*
X248299Y24610D01*
X247962Y25193D01*
X247486Y25670D01*
X246902Y26007D01*
X246251Y26181D01*
X245577D01*
X244927Y26007D01*
X244511Y26578D01*
X244174Y27162D01*
X243697Y27638D01*
X243114Y27975D01*
X242463Y28150D01*
X241789D01*
X241138Y27975D01*
X240555Y27638D01*
X240078Y27162D01*
X239741Y26578D01*
X239567Y25927D01*
Y25254D01*
X239741Y24603D01*
X240078Y24019D01*
X240555Y23543D01*
X240621Y23505D01*
Y13933D01*
X240634Y13866D01*
X240477Y12272D01*
X239992Y10675D01*
X239206Y9203D01*
X238147Y7912D01*
X236857Y6854D01*
X235384Y6067D01*
X233787Y5582D01*
X232193Y5425D01*
X232126Y5438D01*
X218338D01*
X217950Y6226D01*
X218321Y6709D01*
X218890Y8084D01*
X219084Y9559D01*
X219068D01*
Y21946D01*
X219410Y22288D01*
X219747Y22871D01*
X219921Y23522D01*
Y24196D01*
X219747Y24847D01*
X219410Y25430D01*
X218934Y25907D01*
X218350Y26244D01*
X217699Y26418D01*
X217025D01*
X216375Y26244D01*
X215791Y25907D01*
X215315Y25430D01*
X214978Y24847D01*
X214803Y24196D01*
Y23522D01*
X214978Y22871D01*
X215315Y22288D01*
X215656Y21946D01*
Y9559D01*
X215670Y9491D01*
X215508Y8680D01*
X215010Y7934D01*
X214265Y7436D01*
X213454Y7275D01*
X213386Y7288D01*
X195364D01*
X195327Y7281D01*
X194473Y7393D01*
X194278Y7474D01*
X194117Y8074D01*
X193780Y8658D01*
X193304Y9134D01*
X192720Y9471D01*
X192069Y9646D01*
X191395D01*
X190744Y9471D01*
X190161Y9134D01*
X189542Y8800D01*
X188959Y9137D01*
X188308Y9311D01*
X187634D01*
X186983Y9137D01*
X186400Y8800D01*
X185923Y8323D01*
X185587Y7740D01*
X185412Y7089D01*
Y6415D01*
X184726Y5935D01*
X184699Y5928D01*
X184116Y5591D01*
X183639Y5115D01*
X183302Y4531D01*
X183128Y3880D01*
Y3206D01*
X183302Y2555D01*
X183639Y1972D01*
X183293Y1204D01*
X53654D01*
X53592Y1992D01*
X54223Y2092D01*
X56168Y2723D01*
X57990Y3652D01*
X59645Y4854D01*
X61091Y6300D01*
X62293Y7954D01*
X63221Y9777D01*
X63853Y11722D01*
X64173Y13741D01*
Y15786D01*
X63853Y17806D01*
X63221Y19751D01*
X62293Y21573D01*
X61091Y23228D01*
X59645Y24674D01*
X57990Y25876D01*
X56168Y26804D01*
X54223Y27436D01*
X52204Y27756D01*
X50159D01*
X48139Y27436D01*
X46194Y26804D01*
X44372Y25876D01*
X42717Y24674D01*
X41271Y23228D01*
X40197Y21749D01*
X39409Y21941D01*
Y25630D01*
X31457D01*
Y17677D01*
X37882D01*
X38394Y17078D01*
X38189Y15786D01*
Y13741D01*
X38509Y11722D01*
X39141Y9777D01*
X40069Y7954D01*
X41271Y6300D01*
X42717Y4854D01*
X44372Y3652D01*
X46194Y2723D01*
X48139Y2092D01*
X48770Y1992D01*
X48708Y1204D01*
X1204D01*
Y6509D01*
X1992Y6898D01*
X2140Y6784D01*
X3102Y6385D01*
X4134Y6249D01*
X5996D01*
Y10236D01*
Y14223D01*
X4134D01*
X3102Y14087D01*
X2140Y13689D01*
X1992Y13575D01*
X1204Y13963D01*
Y56903D01*
X1992Y57291D01*
X2140Y57177D01*
X3102Y56779D01*
X4134Y56643D01*
X5996D01*
Y60630D01*
Y64617D01*
X4134D01*
X3102Y64481D01*
X2140Y64083D01*
X1992Y63968D01*
X1204Y64357D01*
Y69662D01*
X67500D01*
X67647Y69352D01*
X67698Y68875D01*
X66509Y68080D01*
X65385Y66956D01*
X64501Y65634D01*
X63893Y64165D01*
X63583Y62606D01*
Y61016D01*
X63893Y59457D01*
X64501Y57988D01*
X65385Y56666D01*
X66509Y55542D01*
X67831Y54659D01*
X69299Y54050D01*
X70859Y53740D01*
X72448D01*
X74008Y54050D01*
X75476Y54659D01*
X76798Y55542D01*
X77923Y56666D01*
X78806Y57988D01*
X79414Y59457D01*
X79612Y60452D01*
X80415D01*
X80602Y59510D01*
X81197Y58074D01*
X82061Y56782D01*
X83160Y55683D01*
X84452Y54819D01*
X85266Y54482D01*
X85193Y54617D01*
X84822Y55192D01*
X84394Y55763D01*
X83908Y56329D01*
X83366Y56891D01*
X87689D01*
Y61811D01*
X88189D01*
Y62311D01*
X96079D01*
Y62588D01*
X95776Y64112D01*
X95181Y65548D01*
X94317Y66840D01*
X93218Y67939D01*
X91926Y68803D01*
X91753Y68875D01*
X91910Y69662D01*
X98693D01*
X99114Y68875D01*
X98956Y68638D01*
X98773Y67716D01*
Y61417D01*
X98956Y60496D01*
X99478Y59714D01*
X100259Y59192D01*
X101181Y59009D01*
X103543D01*
X104465Y59192D01*
X105246Y59714D01*
X105769Y60496D01*
X105952Y61417D01*
Y67716D01*
X105769Y68638D01*
X105611Y68875D01*
X106031Y69662D01*
X121044D01*
Y68732D01*
X120256Y68180D01*
X119784Y68307D01*
X118799D01*
X117848Y68052D01*
X116995Y67560D01*
X116298Y66863D01*
X115806Y66011D01*
X115762Y65846D01*
X114947D01*
X114903Y66011D01*
X114410Y66863D01*
X113714Y67560D01*
X112861Y68052D01*
X111910Y68307D01*
X110925D01*
X109974Y68052D01*
X109121Y67560D01*
X108424Y66863D01*
X107932Y66011D01*
X107677Y65059D01*
Y64074D01*
X107932Y63123D01*
X108424Y62270D01*
X109121Y61574D01*
X109974Y61082D01*
X110925Y60827D01*
X111910D01*
X112861Y61082D01*
X113714Y61574D01*
X114410Y62270D01*
X114903Y63123D01*
X114947Y63288D01*
X115762D01*
X115806Y63123D01*
X116298Y62270D01*
X116995Y61574D01*
X117848Y61082D01*
X118799Y60827D01*
X119784D01*
X120256Y60953D01*
X121044Y60402D01*
Y57683D01*
X121063Y57586D01*
Y57487D01*
X121214Y56727D01*
X121252Y56635D01*
X121271Y56538D01*
X121568Y55822D01*
X121623Y55740D01*
X121661Y55648D01*
X122092Y55004D01*
X122162Y54934D01*
X122217Y54852D01*
X122765Y54303D01*
X122847Y54248D01*
X122917Y54178D01*
X123562Y53747D01*
X123653Y53710D01*
X123735Y53655D01*
X124452Y53358D01*
X124549Y53339D01*
X124640Y53301D01*
X125401Y53150D01*
X125499D01*
X125596Y53130D01*
X141860D01*
X141925Y53143D01*
X141991Y53139D01*
X142028Y53144D01*
X142064Y53139D01*
X142130Y53143D01*
X142195Y53130D01*
X144660D01*
X144851Y53121D01*
X145249Y53042D01*
X145602Y52896D01*
X145919Y52684D01*
X146188Y52415D01*
X146400Y52098D01*
X146546Y51746D01*
X146625Y51347D01*
X146635Y51132D01*
X146637Y51125D01*
X146656Y50202D01*
X146677Y50108D01*
X146678Y50011D01*
X147081Y48136D01*
X147120Y48048D01*
X147140Y47954D01*
X147892Y46189D01*
X147946Y46110D01*
X147983Y46021D01*
X149057Y44431D01*
X149126Y44364D01*
X149179Y44284D01*
X149857Y43606D01*
X149857Y43606D01*
X171558Y21904D01*
X171857Y21605D01*
X171893Y21582D01*
X171920Y21548D01*
X172566Y21003D01*
X172603Y20982D01*
X172633Y20951D01*
X173323Y20462D01*
X173362Y20445D01*
X173394Y20416D01*
X174123Y19987D01*
X174163Y19973D01*
X174197Y19947D01*
X174579Y19764D01*
X174606Y19758D01*
X174629Y19742D01*
X174794Y19709D01*
X174958Y19667D01*
X174986Y19671D01*
X175013Y19666D01*
X193898D01*
X194282Y19742D01*
X194607Y19960D01*
X194825Y20285D01*
X194901Y20669D01*
X194901Y31496D01*
Y31884D01*
X194882Y31981D01*
Y32080D01*
X194731Y32840D01*
X194693Y32932D01*
X194674Y33029D01*
X194377Y33745D01*
X194322Y33827D01*
X194284Y33918D01*
X193853Y34563D01*
X193783Y34633D01*
X193728Y34715D01*
X193180Y35264D01*
X193098Y35319D01*
X193028Y35388D01*
X192383Y35819D01*
X192292Y35857D01*
X192209Y35912D01*
X191493Y36209D01*
X191396Y36228D01*
X191305Y36266D01*
X190544Y36417D01*
X190445D01*
X190348Y36437D01*
X181332D01*
X180450Y36480D01*
X178697Y36829D01*
X177069Y37503D01*
X175583Y38496D01*
X174929Y39089D01*
X168050Y45968D01*
X167673Y46383D01*
X167037Y47335D01*
X166609Y48370D01*
X166385Y49492D01*
X166358Y50053D01*
Y55287D01*
X167052Y55509D01*
X167145Y55512D01*
X167895Y54763D01*
X168837Y54219D01*
X169889Y53937D01*
X170236D01*
Y48031D01*
X180472D01*
Y58268D01*
X174567D01*
Y58615D01*
X174285Y59667D01*
X173741Y60609D01*
X172971Y61379D01*
X172029Y61923D01*
X170977Y62205D01*
X169889D01*
X168837Y61923D01*
X167895Y61379D01*
X167145Y60629D01*
X167052Y60633D01*
X166358Y60855D01*
Y69662D01*
X195116D01*
X195305Y68875D01*
X193978Y68199D01*
X192324Y66996D01*
X190878Y65550D01*
X189675Y63896D01*
X188747Y62074D01*
X188115Y60129D01*
X187795Y58109D01*
Y56064D01*
X188115Y54044D01*
X188747Y52099D01*
X189675Y50277D01*
X190878Y48623D01*
X192324Y47177D01*
X193978Y45975D01*
X195800Y45046D01*
X197745Y44414D01*
X199765Y44094D01*
X201810D01*
X203830Y44414D01*
X205775Y45046D01*
X207597Y45975D01*
X209251Y47177D01*
X210697Y48623D01*
X211899Y50277D01*
X212828Y52099D01*
X213460Y54044D01*
X213779Y56064D01*
Y58109D01*
X213460Y60129D01*
X212828Y62074D01*
X211899Y63896D01*
X210697Y65550D01*
X209251Y66996D01*
X207597Y68199D01*
X206270Y68875D01*
X206459Y69662D01*
X254701D01*
Y53757D01*
D02*
G37*
G36*
X242963Y24476D02*
X242749Y24224D01*
X242662Y24101D01*
X242589Y23981D01*
X242528Y23864D01*
X242481Y23749D01*
X242448Y23636D01*
X242428Y23526D01*
X242421Y23418D01*
X241831D01*
X241824Y23526D01*
X241804Y23636D01*
X241771Y23749D01*
X241724Y23864D01*
X241663Y23981D01*
X241590Y24101D01*
X241503Y24224D01*
X241402Y24349D01*
X241161Y24607D01*
X243091Y24607D01*
X242963Y24476D01*
D02*
G37*
G36*
X245736Y22256D02*
X245602Y22268D01*
X245474Y22271D01*
X245351Y22264D01*
X245233Y22246D01*
X245121Y22219D01*
X245014Y22181D01*
X244913Y22133D01*
X244816Y22076D01*
X244725Y22008D01*
X244640Y21930D01*
X244222Y22347D01*
X244300Y22433D01*
X244368Y22524D01*
X244426Y22620D01*
X244473Y22722D01*
X244511Y22829D01*
X244539Y22941D01*
X244556Y23059D01*
X244563Y23182D01*
X244561Y23310D01*
X244548Y23444D01*
X245736Y22256D01*
D02*
G37*
G36*
X218237Y22780D02*
X218157Y22682D01*
X218086Y22579D01*
X218025Y22472D01*
X217973Y22361D01*
X217930Y22246D01*
X217897Y22127D01*
X217873Y22004D01*
X217859Y21877D01*
X217854Y21745D01*
X216870D01*
X216865Y21877D01*
X216851Y22004D01*
X216828Y22127D01*
X216795Y22246D01*
X216752Y22361D01*
X216700Y22472D01*
X216639Y22579D01*
X216568Y22682D01*
X216488Y22780D01*
X216398Y22875D01*
X218327D01*
X218237Y22780D01*
D02*
G37*
G36*
X193122Y7124D02*
X193155Y7000D01*
X193199Y6885D01*
X193254Y6779D01*
X193318Y6683D01*
X193394Y6597D01*
X193480Y6520D01*
X193577Y6452D01*
X193684Y6394D01*
X193802Y6345D01*
X193180Y5531D01*
X193049Y5583D01*
X192790Y5665D01*
X192664Y5695D01*
X192538Y5718D01*
X192414Y5734D01*
X192291Y5742D01*
X192169Y5743D01*
X192049Y5737D01*
X191931Y5723D01*
X193100Y7258D01*
X193122Y7124D01*
D02*
G37*
G36*
X189062Y5883D02*
X188994Y5740D01*
X188945Y5605D01*
X188913Y5477D01*
X188900Y5358D01*
X188904Y5246D01*
X188926Y5142D01*
X188967Y5046D01*
X189025Y4957D01*
X189102Y4877D01*
X188457Y4690D01*
X188385Y4767D01*
X188210Y4927D01*
X188107Y5011D01*
X187738Y5276D01*
X187440Y5464D01*
X187276Y5562D01*
X189147Y6033D01*
X189062Y5883D01*
D02*
G37*
G36*
X187078Y3638D02*
X187125Y3485D01*
X187179Y3348D01*
X187241Y3228D01*
X187311Y3125D01*
X187388Y3038D01*
X187473Y2968D01*
X187566Y2915D01*
X187667Y2878D01*
X187775Y2858D01*
X187431Y2311D01*
X187325Y2326D01*
X187212Y2336D01*
X187089Y2339D01*
X186816Y2328D01*
X186667Y2314D01*
X186164Y2235D01*
X185979Y2197D01*
X187039Y3809D01*
X187078Y3638D01*
D02*
G37*
G36*
X1047062Y-166394D02*
X1046775D01*
Y-166681D01*
X1046489D01*
Y-166967D01*
Y-167253D01*
X1046203D01*
Y-167539D01*
X1045916D01*
Y-167826D01*
X1045630D01*
Y-168112D01*
Y-168398D01*
X1045344D01*
Y-168685D01*
X1045057D01*
Y-168971D01*
X1044771D01*
Y-169257D01*
X1044485D01*
Y-169544D01*
Y-169830D01*
X1044198D01*
Y-170116D01*
X1043912D01*
Y-170403D01*
X1043626D01*
Y-170689D01*
Y-170975D01*
X1043340D01*
Y-171262D01*
X1043053D01*
Y-171548D01*
X1042767D01*
Y-171834D01*
X1042480D01*
Y-172120D01*
Y-172407D01*
X1042194D01*
Y-172693D01*
X1041908D01*
Y-172979D01*
X1041622D01*
Y-173266D01*
Y-173552D01*
X1041335D01*
Y-173838D01*
X1041049D01*
Y-174125D01*
X1040763D01*
Y-174411D01*
Y-174697D01*
X1040476D01*
Y-174984D01*
X1040190D01*
Y-175270D01*
X1039904D01*
Y-175556D01*
X1039617D01*
Y-175842D01*
Y-176129D01*
X1039331D01*
Y-176415D01*
X1039045D01*
Y-176701D01*
X1038758D01*
Y-176988D01*
Y-177274D01*
X1038472D01*
Y-177560D01*
X1038186D01*
Y-177847D01*
X1037899D01*
Y-178133D01*
Y-178419D01*
X1037613D01*
Y-178706D01*
X1037327D01*
Y-178992D01*
X1037041D01*
Y-179278D01*
X1036754D01*
Y-179565D01*
Y-179851D01*
X1036468D01*
Y-180137D01*
X1036182D01*
Y-180423D01*
X1035895D01*
Y-180710D01*
Y-180996D01*
X1035609D01*
Y-181282D01*
X1035323D01*
Y-181569D01*
X1035036D01*
Y-181855D01*
Y-182141D01*
X1034750D01*
Y-182428D01*
X1034464D01*
Y-182714D01*
X1034177D01*
Y-183000D01*
X1033891D01*
Y-183287D01*
Y-183573D01*
X1033605D01*
Y-183859D01*
X1033319D01*
Y-184146D01*
X1033032D01*
Y-184432D01*
Y-184718D01*
X1032746D01*
Y-185004D01*
X1032460D01*
Y-185291D01*
X1032173D01*
Y-185577D01*
X1031887D01*
Y-185863D01*
Y-186150D01*
X1032173D01*
Y-186436D01*
Y-186722D01*
X1032460D01*
Y-187009D01*
Y-187295D01*
X1032746D01*
Y-187581D01*
X1033032D01*
Y-187868D01*
Y-188154D01*
X1033319D01*
Y-188440D01*
Y-188727D01*
X1033605D01*
Y-189013D01*
Y-189299D01*
X1033891D01*
Y-189585D01*
Y-189872D01*
X1034177D01*
Y-190158D01*
Y-190444D01*
X1034464D01*
Y-190731D01*
Y-191017D01*
X1034750D01*
Y-191303D01*
Y-191590D01*
X1035036D01*
Y-191876D01*
Y-192162D01*
X1035323D01*
Y-192449D01*
X1035609D01*
Y-192735D01*
Y-193021D01*
X1035895D01*
Y-193308D01*
Y-193594D01*
X1036182D01*
Y-193880D01*
Y-194167D01*
X1036468D01*
Y-194453D01*
Y-194739D01*
X1036754D01*
Y-195025D01*
Y-195312D01*
X1037041D01*
Y-195598D01*
Y-195884D01*
X1037327D01*
Y-196171D01*
Y-196457D01*
X1037613D01*
Y-196743D01*
X1037899D01*
Y-197030D01*
Y-197316D01*
X1038186D01*
Y-197602D01*
Y-197889D01*
X1038472D01*
Y-198175D01*
Y-198461D01*
X1038758D01*
Y-198748D01*
Y-199034D01*
X1039045D01*
Y-199320D01*
Y-199606D01*
X1039331D01*
Y-199893D01*
Y-200179D01*
X1039617D01*
Y-200465D01*
Y-200752D01*
X1039904D01*
Y-201038D01*
X1040190D01*
Y-201324D01*
Y-201611D01*
X1040476D01*
Y-201897D01*
Y-202183D01*
X1040763D01*
Y-202470D01*
X1025588D01*
Y-202183D01*
X1025302D01*
Y-201897D01*
Y-201611D01*
Y-201324D01*
X1025016D01*
Y-201038D01*
Y-200752D01*
Y-200465D01*
X1024729D01*
Y-200179D01*
Y-199893D01*
X1024443D01*
Y-199606D01*
Y-199320D01*
Y-199034D01*
X1024156D01*
Y-198748D01*
Y-198461D01*
Y-198175D01*
X1023870D01*
Y-197889D01*
Y-197602D01*
X1023584D01*
Y-197316D01*
Y-197030D01*
Y-196743D01*
X1023298D01*
Y-196457D01*
Y-196171D01*
Y-195884D01*
X1023011D01*
Y-195598D01*
Y-195312D01*
Y-195025D01*
X1022725D01*
Y-194739D01*
X1022152D01*
Y-195025D01*
Y-195312D01*
X1021866D01*
Y-195598D01*
X1021580D01*
Y-195884D01*
Y-196171D01*
X1021293D01*
Y-196457D01*
X1021007D01*
Y-196743D01*
Y-197030D01*
X1020721D01*
Y-197316D01*
X1020434D01*
Y-197602D01*
Y-197889D01*
X1020148D01*
Y-198175D01*
X1019862D01*
Y-198461D01*
X1019576D01*
Y-198748D01*
Y-199034D01*
X1019289D01*
Y-199320D01*
X1019003D01*
Y-199606D01*
Y-199893D01*
X1018717D01*
Y-200179D01*
X1018430D01*
Y-200465D01*
Y-200752D01*
X1018144D01*
Y-201038D01*
X1017858D01*
Y-201324D01*
Y-201611D01*
X1017571D01*
Y-201897D01*
X1017285D01*
Y-202183D01*
Y-202470D01*
X1001252D01*
Y-202183D01*
X1001538D01*
Y-201897D01*
X1001824D01*
Y-201611D01*
X1002110D01*
Y-201324D01*
X1002397D01*
Y-201038D01*
Y-200752D01*
X1002683D01*
Y-200465D01*
X1002969D01*
Y-200179D01*
X1003256D01*
Y-199893D01*
X1003542D01*
Y-199606D01*
Y-199320D01*
X1003828D01*
Y-199034D01*
X1004115D01*
Y-198748D01*
X1004401D01*
Y-198461D01*
Y-198175D01*
X1004687D01*
Y-197889D01*
X1004974D01*
Y-197602D01*
X1005260D01*
Y-197316D01*
X1005546D01*
Y-197030D01*
Y-196743D01*
X1005832D01*
Y-196457D01*
X1006119D01*
Y-196171D01*
X1006405D01*
Y-195884D01*
X1006691D01*
Y-195598D01*
Y-195312D01*
X1006978D01*
Y-195025D01*
X1007264D01*
Y-194739D01*
X1007550D01*
Y-194453D01*
Y-194167D01*
X1007837D01*
Y-193880D01*
X1008123D01*
Y-193594D01*
X1008409D01*
Y-193308D01*
X1008696D01*
Y-193021D01*
Y-192735D01*
X1008982D01*
Y-192449D01*
X1009268D01*
Y-192162D01*
X1009555D01*
Y-191876D01*
Y-191590D01*
X1009841D01*
Y-191303D01*
X1010127D01*
Y-191017D01*
X1010413D01*
Y-190731D01*
X1010700D01*
Y-190444D01*
Y-190158D01*
X1010986D01*
Y-189872D01*
X1011272D01*
Y-189585D01*
X1011559D01*
Y-189299D01*
Y-189013D01*
X1011845D01*
Y-188727D01*
X1012131D01*
Y-188440D01*
X1012418D01*
Y-188154D01*
X1012704D01*
Y-187868D01*
Y-187581D01*
X1012990D01*
Y-187295D01*
X1013277D01*
Y-187009D01*
X1013563D01*
Y-186722D01*
X1013849D01*
Y-186436D01*
Y-186150D01*
X1014136D01*
Y-185863D01*
X1014422D01*
Y-185577D01*
X1014708D01*
Y-185291D01*
Y-185004D01*
X1014995D01*
Y-184718D01*
X1015281D01*
Y-184432D01*
X1015567D01*
Y-184146D01*
X1015853D01*
Y-183859D01*
Y-183573D01*
X1016140D01*
Y-183287D01*
Y-183000D01*
Y-182714D01*
X1015853D01*
Y-182428D01*
X1015567D01*
Y-182141D01*
Y-181855D01*
X1015281D01*
Y-181569D01*
Y-181282D01*
X1014995D01*
Y-180996D01*
Y-180710D01*
X1014708D01*
Y-180423D01*
Y-180137D01*
X1014422D01*
Y-179851D01*
Y-179565D01*
X1014136D01*
Y-179278D01*
Y-178992D01*
X1013849D01*
Y-178706D01*
X1013563D01*
Y-178419D01*
Y-178133D01*
X1013277D01*
Y-177847D01*
Y-177560D01*
X1012990D01*
Y-177274D01*
Y-176988D01*
X1012704D01*
Y-176701D01*
Y-176415D01*
X1012418D01*
Y-176129D01*
Y-175842D01*
X1012131D01*
Y-175556D01*
Y-175270D01*
X1011845D01*
Y-174984D01*
X1011559D01*
Y-174697D01*
Y-174411D01*
X1011272D01*
Y-174125D01*
Y-173838D01*
X1010986D01*
Y-173552D01*
Y-173266D01*
X1010700D01*
Y-172979D01*
Y-172693D01*
X1010413D01*
Y-172407D01*
Y-172120D01*
X1010127D01*
Y-171834D01*
Y-171548D01*
X1009841D01*
Y-171262D01*
Y-170975D01*
X1009555D01*
Y-170689D01*
X1009268D01*
Y-170403D01*
Y-170116D01*
X1008982D01*
Y-169830D01*
Y-169544D01*
X1008696D01*
Y-169257D01*
Y-168971D01*
X1008409D01*
Y-168685D01*
Y-168398D01*
X1008123D01*
Y-168112D01*
Y-167826D01*
X1007837D01*
Y-167539D01*
Y-167253D01*
X1007550D01*
Y-166967D01*
X1007264D01*
Y-166681D01*
Y-166394D01*
X1006978D01*
Y-166108D01*
X1022725D01*
Y-166394D01*
X1023011D01*
Y-166681D01*
Y-166967D01*
Y-167253D01*
X1023298D01*
Y-167539D01*
Y-167826D01*
Y-168112D01*
X1023584D01*
Y-168398D01*
Y-168685D01*
Y-168971D01*
X1023870D01*
Y-169257D01*
Y-169544D01*
Y-169830D01*
X1024156D01*
Y-170116D01*
Y-170403D01*
Y-170689D01*
X1024443D01*
Y-170975D01*
Y-171262D01*
Y-171548D01*
X1024729D01*
Y-171834D01*
Y-172120D01*
Y-172407D01*
X1025016D01*
Y-172693D01*
Y-172979D01*
Y-173266D01*
X1025302D01*
Y-173552D01*
Y-173838D01*
Y-174125D01*
Y-174411D01*
X1025874D01*
Y-174125D01*
X1026161D01*
Y-173838D01*
X1026447D01*
Y-173552D01*
Y-173266D01*
X1026733D01*
Y-172979D01*
X1027020D01*
Y-172693D01*
Y-172407D01*
X1027306D01*
Y-172120D01*
X1027592D01*
Y-171834D01*
Y-171548D01*
X1027879D01*
Y-171262D01*
X1028165D01*
Y-170975D01*
Y-170689D01*
X1028451D01*
Y-170403D01*
X1028738D01*
Y-170116D01*
Y-169830D01*
X1029024D01*
Y-169544D01*
X1029310D01*
Y-169257D01*
Y-168971D01*
X1029597D01*
Y-168685D01*
X1029883D01*
Y-168398D01*
Y-168112D01*
X1030169D01*
Y-167826D01*
X1030455D01*
Y-167539D01*
Y-167253D01*
X1030742D01*
Y-166967D01*
X1031028D01*
Y-166681D01*
Y-166394D01*
X1031314D01*
Y-166108D01*
X1047062D01*
Y-166394D01*
D02*
G37*
G36*
X913926Y-152365D02*
X915644D01*
Y-152651D01*
X916503D01*
Y-152937D01*
X917362D01*
Y-153224D01*
X918221D01*
Y-153510D01*
X918793D01*
Y-153796D01*
X919080D01*
Y-154083D01*
X919652D01*
Y-154369D01*
X919939D01*
Y-154655D01*
X920511D01*
Y-154942D01*
X920798D01*
Y-155228D01*
X921084D01*
Y-155514D01*
X921370D01*
Y-155801D01*
X921657D01*
Y-156087D01*
X921943D01*
Y-156373D01*
X922229D01*
Y-156659D01*
Y-156946D01*
X922515D01*
Y-157232D01*
X922802D01*
Y-157518D01*
Y-157805D01*
X923088D01*
Y-158091D01*
X923374D01*
Y-158377D01*
Y-158664D01*
X923661D01*
Y-158950D01*
Y-159236D01*
Y-159523D01*
X923947D01*
Y-159809D01*
Y-160095D01*
Y-160382D01*
X924233D01*
Y-160668D01*
Y-160954D01*
Y-161240D01*
Y-161527D01*
X924520D01*
Y-161813D01*
Y-162100D01*
Y-162386D01*
Y-162672D01*
Y-162958D01*
X924806D01*
Y-163245D01*
Y-163531D01*
Y-163817D01*
Y-164104D01*
Y-164390D01*
Y-164676D01*
Y-164963D01*
Y-165249D01*
Y-165535D01*
Y-165822D01*
Y-166108D01*
Y-166394D01*
Y-166681D01*
Y-166967D01*
Y-167253D01*
Y-167539D01*
Y-167826D01*
Y-168112D01*
Y-168398D01*
Y-168685D01*
X924520D01*
Y-168971D01*
Y-169257D01*
Y-169544D01*
Y-169830D01*
Y-170116D01*
Y-170403D01*
Y-170689D01*
X924233D01*
Y-170975D01*
Y-171262D01*
Y-171548D01*
Y-171834D01*
Y-172120D01*
X923947D01*
Y-172407D01*
Y-172693D01*
Y-172979D01*
Y-173266D01*
Y-173552D01*
X923661D01*
Y-173838D01*
Y-174125D01*
Y-174411D01*
X923374D01*
Y-174697D01*
Y-174984D01*
Y-175270D01*
Y-175556D01*
X923088D01*
Y-175842D01*
Y-176129D01*
Y-176415D01*
X922802D01*
Y-176701D01*
Y-176988D01*
X922515D01*
Y-177274D01*
Y-177560D01*
Y-177847D01*
X922229D01*
Y-178133D01*
Y-178419D01*
X921943D01*
Y-178706D01*
Y-178992D01*
X921657D01*
Y-179278D01*
Y-179565D01*
X921370D01*
Y-179851D01*
X921084D01*
Y-180137D01*
Y-180423D01*
X920798D01*
Y-180710D01*
X920511D01*
Y-180996D01*
X920225D01*
Y-181282D01*
Y-181569D01*
X919939D01*
Y-181855D01*
X919652D01*
Y-182141D01*
X919366D01*
Y-182428D01*
X919080D01*
Y-182714D01*
X918793D01*
Y-183000D01*
X918221D01*
Y-183287D01*
X917934D01*
Y-183573D01*
X917362D01*
Y-183859D01*
X917076D01*
Y-184146D01*
X916503D01*
Y-184432D01*
X915644D01*
Y-184718D01*
X914785D01*
Y-185004D01*
X913926D01*
Y-185291D01*
X912208D01*
Y-185577D01*
X907055D01*
Y-185291D01*
X904478D01*
Y-185004D01*
X902474D01*
Y-184718D01*
X901042D01*
Y-184432D01*
X899610D01*
Y-184146D01*
X898179D01*
Y-184432D01*
Y-184718D01*
Y-185004D01*
Y-185291D01*
Y-185577D01*
Y-185863D01*
Y-186150D01*
X897892D01*
Y-186436D01*
Y-186722D01*
Y-187009D01*
Y-187295D01*
Y-187581D01*
Y-187868D01*
X897606D01*
Y-188154D01*
Y-188440D01*
Y-188727D01*
Y-189013D01*
Y-189299D01*
Y-189585D01*
X897320D01*
Y-189872D01*
Y-190158D01*
Y-190444D01*
Y-190731D01*
Y-191017D01*
Y-191303D01*
Y-191590D01*
X897034D01*
Y-191876D01*
Y-192162D01*
Y-192449D01*
Y-192735D01*
Y-193021D01*
Y-193308D01*
X896747D01*
Y-193594D01*
Y-193880D01*
Y-194167D01*
Y-194453D01*
Y-194739D01*
Y-195025D01*
X896461D01*
Y-195312D01*
Y-195598D01*
Y-195884D01*
Y-196171D01*
Y-196457D01*
Y-196743D01*
Y-197030D01*
X896175D01*
Y-197316D01*
Y-197602D01*
Y-197889D01*
Y-198175D01*
Y-198461D01*
Y-198748D01*
X895888D01*
Y-199034D01*
Y-199320D01*
Y-199606D01*
Y-199893D01*
Y-200179D01*
Y-200465D01*
X895602D01*
Y-200752D01*
Y-201038D01*
Y-201324D01*
Y-201611D01*
Y-201897D01*
Y-202183D01*
Y-202470D01*
X882145D01*
Y-202183D01*
X882432D01*
Y-201897D01*
Y-201611D01*
Y-201324D01*
Y-201038D01*
Y-200752D01*
X882718D01*
Y-200465D01*
Y-200179D01*
Y-199893D01*
Y-199606D01*
Y-199320D01*
Y-199034D01*
Y-198748D01*
X883004D01*
Y-198461D01*
Y-198175D01*
Y-197889D01*
Y-197602D01*
Y-197316D01*
Y-197030D01*
X883291D01*
Y-196743D01*
Y-196457D01*
Y-196171D01*
Y-195884D01*
Y-195598D01*
Y-195312D01*
X883577D01*
Y-195025D01*
Y-194739D01*
Y-194453D01*
Y-194167D01*
Y-193880D01*
Y-193594D01*
Y-193308D01*
X883863D01*
Y-193021D01*
Y-192735D01*
Y-192449D01*
Y-192162D01*
Y-191876D01*
Y-191590D01*
X884149D01*
Y-191303D01*
Y-191017D01*
Y-190731D01*
Y-190444D01*
Y-190158D01*
Y-189872D01*
X884436D01*
Y-189585D01*
Y-189299D01*
Y-189013D01*
Y-188727D01*
Y-188440D01*
Y-188154D01*
X884722D01*
Y-187868D01*
Y-187581D01*
Y-187295D01*
Y-187009D01*
Y-186722D01*
Y-186436D01*
Y-186150D01*
X885009D01*
Y-185863D01*
Y-185577D01*
Y-185291D01*
Y-185004D01*
Y-184718D01*
Y-184432D01*
X885295D01*
Y-184146D01*
Y-183859D01*
Y-183573D01*
Y-183287D01*
Y-183000D01*
Y-182714D01*
X885581D01*
Y-182428D01*
Y-182141D01*
Y-181855D01*
Y-181569D01*
Y-181282D01*
Y-180996D01*
X885867D01*
Y-180710D01*
Y-180423D01*
Y-180137D01*
Y-179851D01*
Y-179565D01*
Y-179278D01*
Y-178992D01*
X886154D01*
Y-178706D01*
Y-178419D01*
Y-178133D01*
Y-177847D01*
Y-177560D01*
Y-177274D01*
X886440D01*
Y-176988D01*
Y-176701D01*
Y-176415D01*
Y-176129D01*
Y-175842D01*
Y-175556D01*
X886726D01*
Y-175270D01*
Y-174984D01*
Y-174697D01*
Y-174411D01*
Y-174125D01*
Y-173838D01*
Y-173552D01*
X887013D01*
Y-173266D01*
Y-172979D01*
Y-172693D01*
Y-172407D01*
Y-172120D01*
Y-171834D01*
X887299D01*
Y-171548D01*
Y-171262D01*
Y-170975D01*
Y-170689D01*
Y-170403D01*
Y-170116D01*
X887585D01*
Y-169830D01*
Y-169544D01*
Y-169257D01*
Y-168971D01*
Y-168685D01*
Y-168398D01*
X887872D01*
Y-168112D01*
Y-167826D01*
Y-167539D01*
Y-167253D01*
Y-166967D01*
Y-166681D01*
Y-166394D01*
X888158D01*
Y-166108D01*
Y-165822D01*
Y-165535D01*
Y-165249D01*
Y-164963D01*
Y-164676D01*
X888444D01*
Y-164390D01*
Y-164104D01*
Y-163817D01*
Y-163531D01*
Y-163245D01*
Y-162958D01*
X888731D01*
Y-162672D01*
Y-162386D01*
Y-162100D01*
Y-161813D01*
Y-161527D01*
Y-161240D01*
Y-160954D01*
X889017D01*
Y-160668D01*
Y-160382D01*
Y-160095D01*
Y-159809D01*
Y-159523D01*
Y-159236D01*
X889303D01*
Y-158950D01*
Y-158664D01*
Y-158377D01*
Y-158091D01*
Y-157805D01*
Y-157518D01*
X889590D01*
Y-157232D01*
Y-156946D01*
Y-156659D01*
Y-156373D01*
Y-156087D01*
Y-155801D01*
Y-155514D01*
X889876D01*
Y-155228D01*
Y-154942D01*
Y-154655D01*
Y-154369D01*
Y-154083D01*
Y-153796D01*
X890162D01*
Y-153510D01*
Y-153224D01*
Y-152937D01*
Y-152651D01*
Y-152365D01*
Y-152078D01*
X913926D01*
Y-152365D01*
D02*
G37*
G36*
X1002969Y-166394D02*
Y-166681D01*
Y-166967D01*
Y-167253D01*
Y-167539D01*
Y-167826D01*
Y-168112D01*
Y-168398D01*
Y-168685D01*
Y-168971D01*
Y-169257D01*
Y-169544D01*
Y-169830D01*
Y-170116D01*
Y-170403D01*
Y-170689D01*
Y-170975D01*
Y-171262D01*
Y-171548D01*
Y-171834D01*
Y-172120D01*
X1002683D01*
Y-172407D01*
Y-172693D01*
Y-172979D01*
Y-173266D01*
Y-173552D01*
X1002397D01*
Y-173838D01*
Y-174125D01*
Y-174411D01*
Y-174697D01*
X1002110D01*
Y-174984D01*
Y-175270D01*
Y-175556D01*
Y-175842D01*
X1001824D01*
Y-176129D01*
Y-176415D01*
Y-176701D01*
X1001538D01*
Y-176988D01*
Y-177274D01*
Y-177560D01*
X1001252D01*
Y-177847D01*
Y-178133D01*
Y-178419D01*
X1000965D01*
Y-178706D01*
Y-178992D01*
Y-179278D01*
X1000679D01*
Y-179565D01*
Y-179851D01*
X1000393D01*
Y-180137D01*
Y-180423D01*
X1000106D01*
Y-180710D01*
Y-180996D01*
Y-181282D01*
X999820D01*
Y-181569D01*
Y-181855D01*
X999534D01*
Y-182141D01*
Y-182428D01*
Y-182714D01*
X999247D01*
Y-183000D01*
Y-183287D01*
X998961D01*
Y-183573D01*
Y-183859D01*
Y-184146D01*
X998675D01*
Y-184432D01*
Y-184718D01*
X998388D01*
Y-185004D01*
Y-185291D01*
Y-185577D01*
X998102D01*
Y-185863D01*
Y-186150D01*
X997816D01*
Y-186436D01*
Y-186722D01*
Y-187009D01*
X997529D01*
Y-187295D01*
Y-187581D01*
X997243D01*
Y-187868D01*
Y-188154D01*
Y-188440D01*
X996957D01*
Y-188727D01*
Y-189013D01*
X996671D01*
Y-189299D01*
Y-189585D01*
Y-189872D01*
X996384D01*
Y-190158D01*
Y-190444D01*
X996098D01*
Y-190731D01*
Y-191017D01*
Y-191303D01*
X995811D01*
Y-191590D01*
Y-191876D01*
X995525D01*
Y-192162D01*
Y-192449D01*
Y-192735D01*
X995239D01*
Y-193021D01*
Y-193308D01*
X994953D01*
Y-193594D01*
Y-193880D01*
Y-194167D01*
X994666D01*
Y-194453D01*
Y-194739D01*
X994380D01*
Y-195025D01*
Y-195312D01*
Y-195598D01*
X994094D01*
Y-195884D01*
Y-196171D01*
X993807D01*
Y-196457D01*
Y-196743D01*
Y-197030D01*
X993521D01*
Y-197316D01*
Y-197602D01*
X993235D01*
Y-197889D01*
Y-198175D01*
Y-198461D01*
X992948D01*
Y-198748D01*
Y-199034D01*
X992662D01*
Y-199320D01*
Y-199606D01*
Y-199893D01*
X992376D01*
Y-200179D01*
Y-200465D01*
X992089D01*
Y-200752D01*
Y-201038D01*
Y-201324D01*
X991803D01*
Y-201611D01*
Y-201897D01*
X991517D01*
Y-202183D01*
Y-202470D01*
Y-202756D01*
X991230D01*
Y-203042D01*
Y-203328D01*
X990944D01*
Y-203615D01*
Y-203901D01*
X990658D01*
Y-204187D01*
Y-204474D01*
X990372D01*
Y-204760D01*
Y-205046D01*
Y-205333D01*
X990085D01*
Y-205619D01*
X989799D01*
Y-205905D01*
Y-206192D01*
Y-206478D01*
X989513D01*
Y-206764D01*
X989226D01*
Y-207051D01*
Y-207337D01*
X988940D01*
Y-207623D01*
Y-207909D01*
X988654D01*
Y-208196D01*
Y-208482D01*
X988367D01*
Y-208769D01*
Y-209055D01*
X988081D01*
Y-209341D01*
X987795D01*
Y-209627D01*
Y-209914D01*
X987508D01*
Y-210200D01*
Y-210486D01*
X987222D01*
Y-210773D01*
X986936D01*
Y-211059D01*
X986650D01*
Y-211345D01*
Y-211632D01*
X986363D01*
Y-211918D01*
X986077D01*
Y-212204D01*
Y-212491D01*
X985791D01*
Y-212777D01*
X985504D01*
Y-213063D01*
X985218D01*
Y-213350D01*
Y-213636D01*
X984932D01*
Y-213922D01*
X984645D01*
Y-214208D01*
X984359D01*
Y-214495D01*
X984073D01*
Y-214781D01*
X983786D01*
Y-215067D01*
Y-215354D01*
X983500D01*
Y-215640D01*
X983214D01*
Y-215926D01*
X982928D01*
Y-216213D01*
X982641D01*
Y-216499D01*
X982355D01*
Y-216785D01*
X982069D01*
Y-217072D01*
X981782D01*
Y-217358D01*
X981210D01*
Y-217644D01*
X980923D01*
Y-217931D01*
X980637D01*
Y-218217D01*
X980351D01*
Y-218503D01*
X980064D01*
Y-218789D01*
X979492D01*
Y-219076D01*
X979205D01*
Y-219362D01*
X978633D01*
Y-219648D01*
X978347D01*
Y-219935D01*
X977774D01*
Y-220221D01*
X977487D01*
Y-220507D01*
X976915D01*
Y-220794D01*
X976342D01*
Y-221080D01*
X975770D01*
Y-221366D01*
X975197D01*
Y-221653D01*
X974624D01*
Y-221939D01*
X973765D01*
Y-222225D01*
X973193D01*
Y-222512D01*
X972334D01*
Y-222798D01*
X971189D01*
Y-223084D01*
X970043D01*
Y-223370D01*
X968326D01*
Y-223657D01*
X966321D01*
Y-223943D01*
X966035D01*
Y-223657D01*
Y-223370D01*
Y-223084D01*
Y-222798D01*
Y-222512D01*
Y-222225D01*
Y-221939D01*
Y-221653D01*
Y-221366D01*
Y-221080D01*
Y-220794D01*
Y-220507D01*
Y-220221D01*
Y-219935D01*
Y-219648D01*
Y-219362D01*
Y-219076D01*
Y-218789D01*
Y-218503D01*
Y-218217D01*
Y-217931D01*
Y-217644D01*
Y-217358D01*
Y-217072D01*
Y-216785D01*
Y-216499D01*
Y-216213D01*
Y-215926D01*
Y-215640D01*
Y-215354D01*
Y-215067D01*
Y-214781D01*
Y-214495D01*
X966608D01*
Y-214208D01*
X967180D01*
Y-213922D01*
X967753D01*
Y-213636D01*
X968326D01*
Y-213350D01*
X968898D01*
Y-213063D01*
X969471D01*
Y-212777D01*
X969757D01*
Y-212491D01*
X970330D01*
Y-212204D01*
X970616D01*
Y-211918D01*
X971189D01*
Y-211632D01*
X971475D01*
Y-211345D01*
X971761D01*
Y-211059D01*
X972334D01*
Y-210773D01*
X972620D01*
Y-210486D01*
X972906D01*
Y-210200D01*
X973193D01*
Y-209914D01*
X973479D01*
Y-209627D01*
X973765D01*
Y-209341D01*
X974052D01*
Y-209055D01*
X974338D01*
Y-208769D01*
X974624D01*
Y-208482D01*
X974911D01*
Y-208196D01*
X975197D01*
Y-207909D01*
X975483D01*
Y-207623D01*
Y-207337D01*
X975770D01*
Y-207051D01*
X976056D01*
Y-206764D01*
X976342D01*
Y-206478D01*
Y-206192D01*
X976629D01*
Y-205905D01*
X976915D01*
Y-205619D01*
Y-205333D01*
X977201D01*
Y-205046D01*
Y-204760D01*
X977487D01*
Y-204474D01*
X977774D01*
Y-204187D01*
Y-203901D01*
X978060D01*
Y-203615D01*
Y-203328D01*
X978347D01*
Y-203042D01*
Y-202756D01*
X976629D01*
Y-202470D01*
X974624D01*
Y-202183D01*
X973479D01*
Y-201897D01*
X972906D01*
Y-201611D01*
X972048D01*
Y-201324D01*
X971475D01*
Y-201038D01*
X971189D01*
Y-200752D01*
X970616D01*
Y-200465D01*
X970330D01*
Y-200179D01*
X970043D01*
Y-199893D01*
X969757D01*
Y-199606D01*
X969471D01*
Y-199320D01*
X969184D01*
Y-199034D01*
Y-198748D01*
X968898D01*
Y-198461D01*
X968612D01*
Y-198175D01*
Y-197889D01*
X968326D01*
Y-197602D01*
Y-197316D01*
X968039D01*
Y-197030D01*
Y-196743D01*
X967753D01*
Y-196457D01*
Y-196171D01*
Y-195884D01*
X967467D01*
Y-195598D01*
Y-195312D01*
Y-195025D01*
Y-194739D01*
X967180D01*
Y-194453D01*
Y-194167D01*
Y-193880D01*
Y-193594D01*
Y-193308D01*
Y-193021D01*
Y-192735D01*
X966894D01*
Y-192449D01*
Y-192162D01*
Y-191876D01*
Y-191590D01*
Y-191303D01*
Y-191017D01*
Y-190731D01*
Y-190444D01*
Y-190158D01*
Y-189872D01*
Y-189585D01*
Y-189299D01*
Y-189013D01*
Y-188727D01*
Y-188440D01*
X966608D01*
Y-188154D01*
Y-187868D01*
Y-187581D01*
Y-187295D01*
Y-187009D01*
Y-186722D01*
Y-186436D01*
Y-186150D01*
Y-185863D01*
Y-185577D01*
Y-185291D01*
Y-185004D01*
Y-184718D01*
Y-184432D01*
Y-184146D01*
X966321D01*
Y-183859D01*
Y-183573D01*
Y-183287D01*
Y-183000D01*
Y-182714D01*
Y-182428D01*
Y-182141D01*
Y-181855D01*
Y-181569D01*
Y-181282D01*
Y-180996D01*
Y-180710D01*
Y-180423D01*
Y-180137D01*
Y-179851D01*
Y-179565D01*
X966035D01*
Y-179278D01*
Y-178992D01*
Y-178706D01*
Y-178419D01*
Y-178133D01*
Y-177847D01*
Y-177560D01*
Y-177274D01*
Y-176988D01*
Y-176701D01*
Y-176415D01*
Y-176129D01*
Y-175842D01*
Y-175556D01*
Y-175270D01*
Y-174984D01*
X965749D01*
Y-174697D01*
Y-174411D01*
Y-174125D01*
Y-173838D01*
Y-173552D01*
Y-173266D01*
Y-172979D01*
Y-172693D01*
Y-172407D01*
Y-172120D01*
Y-171834D01*
Y-171548D01*
Y-171262D01*
Y-170975D01*
X965462D01*
Y-170689D01*
Y-170403D01*
Y-170116D01*
Y-169830D01*
Y-169544D01*
Y-169257D01*
Y-168971D01*
Y-168685D01*
Y-168398D01*
Y-168112D01*
Y-167826D01*
Y-167539D01*
Y-167253D01*
Y-166967D01*
Y-166681D01*
Y-166394D01*
X965176D01*
Y-166108D01*
X978919D01*
Y-166394D01*
Y-166681D01*
Y-166967D01*
Y-167253D01*
Y-167539D01*
Y-167826D01*
Y-168112D01*
Y-168398D01*
Y-168685D01*
Y-168971D01*
Y-169257D01*
Y-169544D01*
Y-169830D01*
Y-170116D01*
X979205D01*
Y-170403D01*
Y-170689D01*
Y-170975D01*
Y-171262D01*
Y-171548D01*
Y-171834D01*
Y-172120D01*
Y-172407D01*
Y-172693D01*
Y-172979D01*
Y-173266D01*
Y-173552D01*
Y-173838D01*
Y-174125D01*
Y-174411D01*
Y-174697D01*
Y-174984D01*
Y-175270D01*
Y-175556D01*
Y-175842D01*
Y-176129D01*
Y-176415D01*
Y-176701D01*
Y-176988D01*
Y-177274D01*
Y-177560D01*
Y-177847D01*
Y-178133D01*
Y-178419D01*
Y-178706D01*
Y-178992D01*
Y-179278D01*
Y-179565D01*
Y-179851D01*
Y-180137D01*
Y-180423D01*
Y-180710D01*
Y-180996D01*
Y-181282D01*
Y-181569D01*
Y-181855D01*
X979492D01*
Y-182141D01*
X979205D01*
Y-182428D01*
Y-182714D01*
X979492D01*
Y-183000D01*
Y-183287D01*
Y-183573D01*
Y-183859D01*
Y-184146D01*
Y-184432D01*
Y-184718D01*
Y-185004D01*
Y-185291D01*
Y-185577D01*
Y-185863D01*
Y-186150D01*
Y-186436D01*
Y-186722D01*
Y-187009D01*
Y-187295D01*
Y-187581D01*
Y-187868D01*
Y-188154D01*
Y-188440D01*
Y-188727D01*
Y-189013D01*
Y-189299D01*
Y-189585D01*
Y-189872D01*
Y-190158D01*
X979778D01*
Y-190444D01*
Y-190731D01*
Y-191017D01*
X980064D01*
Y-191303D01*
X980351D01*
Y-191590D01*
X980637D01*
Y-191876D01*
X981496D01*
Y-192162D01*
X982355D01*
Y-191876D01*
X982641D01*
Y-191590D01*
Y-191303D01*
Y-191017D01*
X982928D01*
Y-190731D01*
Y-190444D01*
X983214D01*
Y-190158D01*
Y-189872D01*
Y-189585D01*
X983500D01*
Y-189299D01*
Y-189013D01*
Y-188727D01*
X983786D01*
Y-188440D01*
Y-188154D01*
Y-187868D01*
X984073D01*
Y-187581D01*
Y-187295D01*
Y-187009D01*
X984359D01*
Y-186722D01*
Y-186436D01*
X984645D01*
Y-186150D01*
Y-185863D01*
Y-185577D01*
X984932D01*
Y-185291D01*
Y-185004D01*
Y-184718D01*
X985218D01*
Y-184432D01*
Y-184146D01*
Y-183859D01*
X985504D01*
Y-183573D01*
Y-183287D01*
X985791D01*
Y-183000D01*
Y-182714D01*
Y-182428D01*
X986077D01*
Y-182141D01*
Y-181855D01*
Y-181569D01*
X986363D01*
Y-181282D01*
Y-180996D01*
Y-180710D01*
X986650D01*
Y-180423D01*
Y-180137D01*
X986936D01*
Y-179851D01*
Y-179565D01*
Y-179278D01*
X987222D01*
Y-178992D01*
Y-178706D01*
Y-178419D01*
X987508D01*
Y-178133D01*
Y-177847D01*
Y-177560D01*
X987795D01*
Y-177274D01*
Y-176988D01*
X988081D01*
Y-176701D01*
Y-176415D01*
Y-176129D01*
X988367D01*
Y-175842D01*
Y-175556D01*
Y-175270D01*
X988654D01*
Y-174984D01*
Y-174697D01*
Y-174411D01*
X988940D01*
Y-174125D01*
Y-173838D01*
Y-173552D01*
Y-173266D01*
X989226D01*
Y-172979D01*
Y-172693D01*
Y-172407D01*
Y-172120D01*
X989513D01*
Y-171834D01*
Y-171548D01*
Y-171262D01*
Y-170975D01*
Y-170689D01*
X989799D01*
Y-170403D01*
Y-170116D01*
Y-169830D01*
Y-169544D01*
Y-169257D01*
Y-168971D01*
X990085D01*
Y-168685D01*
Y-168398D01*
Y-168112D01*
Y-167826D01*
Y-167539D01*
Y-167253D01*
Y-166967D01*
Y-166681D01*
Y-166394D01*
Y-166108D01*
X1002969D01*
Y-166394D01*
D02*
G37*
G36*
X945134Y-148929D02*
Y-149215D01*
X944848D01*
Y-149502D01*
Y-149788D01*
Y-150074D01*
Y-150361D01*
Y-150647D01*
Y-150933D01*
X944561D01*
Y-151220D01*
Y-151506D01*
Y-151792D01*
Y-152078D01*
Y-152365D01*
Y-152651D01*
X944275D01*
Y-152937D01*
Y-153224D01*
Y-153510D01*
Y-153796D01*
Y-154083D01*
Y-154369D01*
Y-154655D01*
X943989D01*
Y-154942D01*
Y-155228D01*
Y-155514D01*
Y-155801D01*
Y-156087D01*
Y-156373D01*
X943703D01*
Y-156659D01*
Y-156946D01*
Y-157232D01*
Y-157518D01*
Y-157805D01*
Y-158091D01*
X943416D01*
Y-158377D01*
Y-158664D01*
Y-158950D01*
Y-159236D01*
Y-159523D01*
Y-159809D01*
Y-160095D01*
X943130D01*
Y-160382D01*
Y-160668D01*
Y-160954D01*
Y-161240D01*
Y-161527D01*
Y-161813D01*
X942844D01*
Y-162100D01*
Y-162386D01*
Y-162672D01*
Y-162958D01*
Y-163245D01*
Y-163531D01*
X942557D01*
Y-163817D01*
Y-164104D01*
Y-164390D01*
Y-164676D01*
Y-164963D01*
Y-165249D01*
X942271D01*
Y-165535D01*
Y-165822D01*
Y-166108D01*
Y-166394D01*
Y-166681D01*
Y-166967D01*
Y-167253D01*
X941985D01*
Y-167539D01*
Y-167826D01*
Y-168112D01*
Y-168398D01*
Y-168685D01*
Y-168971D01*
X941698D01*
Y-169257D01*
Y-169544D01*
X942271D01*
Y-169257D01*
X942557D01*
Y-168971D01*
X942844D01*
Y-168685D01*
X943416D01*
Y-168398D01*
X943703D01*
Y-168112D01*
X943989D01*
Y-167826D01*
X944561D01*
Y-167539D01*
X945134D01*
Y-167253D01*
X945420D01*
Y-166967D01*
X945993D01*
Y-166681D01*
X946852D01*
Y-166394D01*
X947425D01*
Y-166108D01*
X948284D01*
Y-165822D01*
X949715D01*
Y-165535D01*
X956014D01*
Y-165822D01*
X957159D01*
Y-166108D01*
X958018D01*
Y-166394D01*
X958591D01*
Y-166681D01*
X958877D01*
Y-166967D01*
X959450D01*
Y-167253D01*
X959736D01*
Y-167539D01*
X960022D01*
Y-167826D01*
X960309D01*
Y-168112D01*
X960595D01*
Y-168398D01*
Y-168685D01*
X960881D01*
Y-168971D01*
Y-169257D01*
X961168D01*
Y-169544D01*
Y-169830D01*
Y-170116D01*
X961454D01*
Y-170403D01*
Y-170689D01*
Y-170975D01*
Y-171262D01*
X961740D01*
Y-171548D01*
Y-171834D01*
Y-172120D01*
Y-172407D01*
Y-172693D01*
Y-172979D01*
Y-173266D01*
Y-173552D01*
Y-173838D01*
Y-174125D01*
Y-174411D01*
Y-174697D01*
Y-174984D01*
Y-175270D01*
Y-175556D01*
Y-175842D01*
Y-176129D01*
Y-176415D01*
X961454D01*
Y-176701D01*
Y-176988D01*
Y-177274D01*
Y-177560D01*
Y-177847D01*
Y-178133D01*
Y-178419D01*
X961168D01*
Y-178706D01*
Y-178992D01*
Y-179278D01*
Y-179565D01*
Y-179851D01*
Y-180137D01*
Y-180423D01*
X960881D01*
Y-180710D01*
Y-180996D01*
Y-181282D01*
Y-181569D01*
Y-181855D01*
Y-182141D01*
X960595D01*
Y-182428D01*
Y-182714D01*
Y-183000D01*
Y-183287D01*
Y-183573D01*
Y-183859D01*
X960309D01*
Y-184146D01*
Y-184432D01*
Y-184718D01*
Y-185004D01*
Y-185291D01*
Y-185577D01*
X960022D01*
Y-185863D01*
Y-186150D01*
Y-186436D01*
Y-186722D01*
Y-187009D01*
Y-187295D01*
Y-187581D01*
X959736D01*
Y-187868D01*
Y-188154D01*
Y-188440D01*
Y-188727D01*
Y-189013D01*
Y-189299D01*
X959450D01*
Y-189585D01*
Y-189872D01*
Y-190158D01*
Y-190444D01*
Y-190731D01*
Y-191017D01*
X959163D01*
Y-191303D01*
Y-191590D01*
Y-191876D01*
Y-192162D01*
Y-192449D01*
Y-192735D01*
Y-193021D01*
X958877D01*
Y-193308D01*
Y-193594D01*
Y-193880D01*
Y-194167D01*
Y-194453D01*
Y-194739D01*
X958591D01*
Y-195025D01*
Y-195312D01*
Y-195598D01*
Y-195884D01*
Y-196171D01*
Y-196457D01*
X958305D01*
Y-196743D01*
Y-197030D01*
Y-197316D01*
Y-197602D01*
Y-197889D01*
Y-198175D01*
X958018D01*
Y-198461D01*
Y-198748D01*
Y-199034D01*
Y-199320D01*
Y-199606D01*
Y-199893D01*
Y-200179D01*
X957732D01*
Y-200465D01*
Y-200752D01*
Y-201038D01*
Y-201324D01*
Y-201611D01*
Y-201897D01*
X957446D01*
Y-202183D01*
Y-202470D01*
X944275D01*
Y-202183D01*
Y-201897D01*
X944561D01*
Y-201611D01*
Y-201324D01*
Y-201038D01*
Y-200752D01*
Y-200465D01*
Y-200179D01*
X944848D01*
Y-199893D01*
Y-199606D01*
Y-199320D01*
Y-199034D01*
Y-198748D01*
Y-198461D01*
Y-198175D01*
X945134D01*
Y-197889D01*
Y-197602D01*
Y-197316D01*
Y-197030D01*
Y-196743D01*
Y-196457D01*
X945420D01*
Y-196171D01*
Y-195884D01*
Y-195598D01*
Y-195312D01*
Y-195025D01*
Y-194739D01*
X945707D01*
Y-194453D01*
Y-194167D01*
Y-193880D01*
Y-193594D01*
Y-193308D01*
Y-193021D01*
Y-192735D01*
X945993D01*
Y-192449D01*
Y-192162D01*
Y-191876D01*
Y-191590D01*
Y-191303D01*
Y-191017D01*
X946279D01*
Y-190731D01*
Y-190444D01*
Y-190158D01*
Y-189872D01*
Y-189585D01*
Y-189299D01*
Y-189013D01*
X946566D01*
Y-188727D01*
Y-188440D01*
Y-188154D01*
Y-187868D01*
Y-187581D01*
Y-187295D01*
X946852D01*
Y-187009D01*
Y-186722D01*
Y-186436D01*
Y-186150D01*
Y-185863D01*
Y-185577D01*
X947138D01*
Y-185291D01*
Y-185004D01*
Y-184718D01*
Y-184432D01*
Y-184146D01*
Y-183859D01*
X947425D01*
Y-183573D01*
Y-183287D01*
Y-183000D01*
Y-182714D01*
Y-182428D01*
Y-182141D01*
Y-181855D01*
X947711D01*
Y-181569D01*
Y-181282D01*
Y-180996D01*
Y-180710D01*
Y-180423D01*
Y-180137D01*
X947997D01*
Y-179851D01*
Y-179565D01*
Y-179278D01*
Y-178992D01*
Y-178706D01*
Y-178419D01*
Y-178133D01*
X948284D01*
Y-177847D01*
Y-177560D01*
Y-177274D01*
Y-176988D01*
Y-176701D01*
Y-176415D01*
X947997D01*
Y-176129D01*
Y-175842D01*
X947711D01*
Y-175556D01*
X947425D01*
Y-175270D01*
X946852D01*
Y-174984D01*
X945134D01*
Y-175270D01*
X943703D01*
Y-175556D01*
X942844D01*
Y-175842D01*
X942271D01*
Y-176129D01*
X941985D01*
Y-176415D01*
X941412D01*
Y-176701D01*
X941126D01*
Y-176988D01*
X940839D01*
Y-177274D01*
Y-177560D01*
X940553D01*
Y-177847D01*
Y-178133D01*
Y-178419D01*
X940267D01*
Y-178706D01*
Y-178992D01*
Y-179278D01*
Y-179565D01*
Y-179851D01*
Y-180137D01*
X939981D01*
Y-180423D01*
Y-180710D01*
Y-180996D01*
Y-181282D01*
Y-181569D01*
Y-181855D01*
Y-182141D01*
X939694D01*
Y-182428D01*
Y-182714D01*
Y-183000D01*
Y-183287D01*
Y-183573D01*
Y-183859D01*
X939408D01*
Y-184146D01*
Y-184432D01*
Y-184718D01*
Y-185004D01*
Y-185291D01*
Y-185577D01*
X939122D01*
Y-185863D01*
Y-186150D01*
Y-186436D01*
Y-186722D01*
Y-187009D01*
Y-187295D01*
X938835D01*
Y-187581D01*
Y-187868D01*
Y-188154D01*
Y-188440D01*
Y-188727D01*
Y-189013D01*
Y-189299D01*
X938549D01*
Y-189585D01*
Y-189872D01*
Y-190158D01*
Y-190444D01*
Y-190731D01*
Y-191017D01*
X938263D01*
Y-191303D01*
Y-191590D01*
Y-191876D01*
Y-192162D01*
Y-192449D01*
Y-192735D01*
X937976D01*
Y-193021D01*
Y-193308D01*
Y-193594D01*
Y-193880D01*
Y-194167D01*
Y-194453D01*
Y-194739D01*
X937690D01*
Y-195025D01*
Y-195312D01*
Y-195598D01*
Y-195884D01*
Y-196171D01*
Y-196457D01*
X937404D01*
Y-196743D01*
Y-197030D01*
Y-197316D01*
Y-197602D01*
Y-197889D01*
Y-198175D01*
X937117D01*
Y-198461D01*
Y-198748D01*
Y-199034D01*
Y-199320D01*
Y-199606D01*
Y-199893D01*
X936831D01*
Y-200179D01*
Y-200465D01*
Y-200752D01*
Y-201038D01*
Y-201324D01*
Y-201611D01*
Y-201897D01*
X936545D01*
Y-202183D01*
Y-202470D01*
X923374D01*
Y-202183D01*
Y-201897D01*
X923661D01*
Y-201611D01*
Y-201324D01*
Y-201038D01*
Y-200752D01*
Y-200465D01*
Y-200179D01*
Y-199893D01*
X923947D01*
Y-199606D01*
Y-199320D01*
Y-199034D01*
Y-198748D01*
Y-198461D01*
Y-198175D01*
X924233D01*
Y-197889D01*
Y-197602D01*
Y-197316D01*
Y-197030D01*
Y-196743D01*
Y-196457D01*
X924520D01*
Y-196171D01*
Y-195884D01*
Y-195598D01*
Y-195312D01*
Y-195025D01*
Y-194739D01*
Y-194453D01*
X924806D01*
Y-194167D01*
Y-193880D01*
Y-193594D01*
Y-193308D01*
Y-193021D01*
Y-192735D01*
X925092D01*
Y-192449D01*
Y-192162D01*
Y-191876D01*
Y-191590D01*
Y-191303D01*
Y-191017D01*
X925379D01*
Y-190731D01*
Y-190444D01*
Y-190158D01*
Y-189872D01*
Y-189585D01*
Y-189299D01*
X925665D01*
Y-189013D01*
Y-188727D01*
Y-188440D01*
Y-188154D01*
Y-187868D01*
Y-187581D01*
Y-187295D01*
X925951D01*
Y-187009D01*
Y-186722D01*
Y-186436D01*
Y-186150D01*
Y-185863D01*
Y-185577D01*
X926237D01*
Y-185291D01*
Y-185004D01*
Y-184718D01*
Y-184432D01*
Y-184146D01*
Y-183859D01*
X926524D01*
Y-183573D01*
Y-183287D01*
Y-183000D01*
Y-182714D01*
Y-182428D01*
Y-182141D01*
Y-181855D01*
X926810D01*
Y-181569D01*
Y-181282D01*
Y-180996D01*
Y-180710D01*
Y-180423D01*
Y-180137D01*
X927096D01*
Y-179851D01*
Y-179565D01*
Y-179278D01*
Y-178992D01*
Y-178706D01*
Y-178419D01*
X927383D01*
Y-178133D01*
Y-177847D01*
Y-177560D01*
Y-177274D01*
Y-176988D01*
Y-176701D01*
X927669D01*
Y-176415D01*
Y-176129D01*
Y-175842D01*
Y-175556D01*
Y-175270D01*
Y-174984D01*
Y-174697D01*
X927955D01*
Y-174411D01*
Y-174125D01*
Y-173838D01*
Y-173552D01*
Y-173266D01*
Y-172979D01*
X928242D01*
Y-172693D01*
Y-172407D01*
Y-172120D01*
Y-171834D01*
Y-171548D01*
Y-171262D01*
X928528D01*
Y-170975D01*
Y-170689D01*
Y-170403D01*
Y-170116D01*
Y-169830D01*
Y-169544D01*
X928814D01*
Y-169257D01*
Y-168971D01*
Y-168685D01*
Y-168398D01*
Y-168112D01*
Y-167826D01*
Y-167539D01*
X929101D01*
Y-167253D01*
Y-166967D01*
Y-166681D01*
Y-166394D01*
Y-166108D01*
Y-165822D01*
X929387D01*
Y-165535D01*
Y-165249D01*
Y-164963D01*
Y-164676D01*
Y-164390D01*
Y-164104D01*
X929673D01*
Y-163817D01*
Y-163531D01*
Y-163245D01*
Y-162958D01*
Y-162672D01*
Y-162386D01*
Y-162100D01*
X929960D01*
Y-161813D01*
Y-161527D01*
Y-161240D01*
Y-160954D01*
Y-160668D01*
Y-160382D01*
X930246D01*
Y-160095D01*
Y-159809D01*
Y-159523D01*
Y-159236D01*
Y-158950D01*
Y-158664D01*
X930532D01*
Y-158377D01*
Y-158091D01*
Y-157805D01*
Y-157518D01*
Y-157232D01*
Y-156946D01*
X930818D01*
Y-156659D01*
Y-156373D01*
Y-156087D01*
Y-155801D01*
Y-155514D01*
Y-155228D01*
Y-154942D01*
X931105D01*
Y-154655D01*
Y-154369D01*
Y-154083D01*
Y-153796D01*
Y-153510D01*
Y-153224D01*
X931391D01*
Y-152937D01*
Y-152651D01*
Y-152365D01*
Y-152078D01*
Y-151792D01*
Y-151506D01*
X931678D01*
Y-151220D01*
Y-150933D01*
Y-150647D01*
Y-150361D01*
Y-150074D01*
Y-149788D01*
Y-149502D01*
X931964D01*
Y-149215D01*
Y-148929D01*
Y-148643D01*
X945134D01*
Y-148929D01*
D02*
G37*
%LPC*%
G36*
X128445Y68171D02*
X127665D01*
Y65067D01*
X130769D01*
Y65847D01*
X130592Y66736D01*
X130088Y67490D01*
X129334Y67994D01*
X128445Y68171D01*
D02*
G37*
G36*
X130769Y64067D02*
X127665D01*
Y60963D01*
X128445D01*
X129334Y61140D01*
X130088Y61644D01*
X130592Y62398D01*
X130769Y63287D01*
Y64067D01*
D02*
G37*
G36*
X160933Y61992D02*
Y58571D01*
X164354D01*
X164284Y59103D01*
X163886Y60064D01*
X163252Y60890D01*
X162426Y61524D01*
X161465Y61922D01*
X160933Y61992D01*
D02*
G37*
G36*
X159933Y61992D02*
X159401Y61922D01*
X158440Y61524D01*
X157614Y60890D01*
X156980Y60064D01*
X156582Y59103D01*
X156448Y58087D01*
X155854D01*
Y53650D01*
X160291D01*
Y53960D01*
X160433Y54084D01*
X161465Y54220D01*
X162426Y54618D01*
X163252Y55252D01*
X163886Y56077D01*
X164284Y57039D01*
X164354Y57571D01*
X160433D01*
Y58071D01*
X159933D01*
Y61992D01*
D02*
G37*
G36*
X154854Y58087D02*
X150417D01*
Y53650D01*
X154854D01*
Y58087D01*
D02*
G37*
G36*
X160291Y52650D02*
X155854D01*
Y48213D01*
X160291D01*
Y52650D01*
D02*
G37*
G36*
X154854D02*
X150417D01*
Y48213D01*
X154854D01*
Y52650D01*
D02*
G37*
G36*
X8858Y64617D02*
X6996D01*
Y61130D01*
X12779D01*
X12709Y61662D01*
X12311Y62623D01*
X11677Y63449D01*
X10852Y64083D01*
X9890Y64481D01*
X8858Y64617D01*
D02*
G37*
G36*
X58465Y62558D02*
X57980D01*
Y60051D01*
X60488D01*
Y60535D01*
X60334Y61309D01*
X59895Y61966D01*
X59239Y62404D01*
X58465Y62558D01*
D02*
G37*
G36*
X56980D02*
X56496D01*
X55722Y62404D01*
X55066Y61966D01*
X54627Y61309D01*
X54473Y60535D01*
Y60051D01*
X56980D01*
Y62558D01*
D02*
G37*
G36*
X12779Y60130D02*
X6996D01*
Y56643D01*
X8858D01*
X9890Y56779D01*
X10852Y57177D01*
X11677Y57811D01*
X12311Y58636D01*
X12709Y59598D01*
X12779Y60130D01*
D02*
G37*
G36*
X60488Y59051D02*
X57980D01*
Y56543D01*
X58465D01*
X59239Y56697D01*
X59895Y57136D01*
X60334Y57792D01*
X60488Y58566D01*
Y59051D01*
D02*
G37*
G36*
X56980D02*
X54473D01*
Y58566D01*
X54627Y57792D01*
X55066Y57136D01*
X55722Y56697D01*
X56496Y56543D01*
X56980D01*
Y59051D01*
D02*
G37*
G36*
X52756Y62700D02*
X46457D01*
Y56401D01*
X52756D01*
Y62700D01*
D02*
G37*
G36*
X96079Y61311D02*
X88689D01*
Y56891D01*
X93012D01*
X92470Y56329D01*
X91984Y55763D01*
X91556Y55192D01*
X91185Y54617D01*
X91112Y54482D01*
X91926Y54819D01*
X93218Y55683D01*
X94317Y56782D01*
X95181Y58074D01*
X95776Y59510D01*
X96079Y61034D01*
Y61311D01*
D02*
G37*
G36*
X236221Y55435D02*
X235146D01*
Y52941D01*
X239149D01*
X239113Y53216D01*
X238813Y53938D01*
X238338Y54558D01*
X237718Y55034D01*
X236995Y55333D01*
X236221Y55435D01*
D02*
G37*
G36*
X234146D02*
X233071D01*
X232296Y55333D01*
X231574Y55034D01*
X230954Y54558D01*
X230478Y53938D01*
X230179Y53216D01*
X230143Y52941D01*
X234146D01*
Y55435D01*
D02*
G37*
G36*
X249106D02*
X248031D01*
X247257Y55333D01*
X246534Y55034D01*
X245914Y54558D01*
X245439Y53938D01*
X245139Y53216D01*
X245103Y52941D01*
X249106D01*
Y55435D01*
D02*
G37*
G36*
X35933Y53008D02*
Y49713D01*
X39228D01*
X38970Y50678D01*
X38470Y51543D01*
X37763Y52250D01*
X36898Y52749D01*
X35933Y53008D01*
D02*
G37*
G36*
X34933D02*
X33968Y52749D01*
X33103Y52250D01*
X32396Y51543D01*
X31896Y50678D01*
X31638Y49713D01*
X34933D01*
Y53008D01*
D02*
G37*
G36*
X249106Y51941D02*
X245103D01*
X245139Y51666D01*
X245439Y50944D01*
X245914Y50324D01*
X246534Y49848D01*
X247257Y49549D01*
X248031Y49447D01*
X249106D01*
Y51941D01*
D02*
G37*
G36*
X239149Y51941D02*
X235146D01*
Y49447D01*
X236221D01*
X236995Y49549D01*
X237718Y49848D01*
X238338Y50324D01*
X238813Y50944D01*
X239113Y51666D01*
X239149Y51941D01*
D02*
G37*
G36*
X234146D02*
X230143D01*
X230179Y51666D01*
X230478Y50944D01*
X230954Y50324D01*
X231574Y49848D01*
X232296Y49549D01*
X233071Y49447D01*
X234146D01*
Y51941D01*
D02*
G37*
G36*
X34933Y48713D02*
X31638D01*
X31896Y47748D01*
X32396Y46882D01*
X33103Y46176D01*
X33968Y45676D01*
X34933Y45417D01*
Y48713D01*
D02*
G37*
G36*
X39228D02*
X35933D01*
Y45417D01*
X36898Y45676D01*
X37763Y46176D01*
X38470Y46882D01*
X38970Y47748D01*
X39228Y48713D01*
D02*
G37*
G36*
X14189Y49386D02*
X9752D01*
Y44949D01*
X14189D01*
Y49386D01*
D02*
G37*
G36*
X8752D02*
X4315D01*
Y44949D01*
X8752D01*
Y49386D01*
D02*
G37*
G36*
X63047Y47216D02*
X59595D01*
Y43763D01*
X63047D01*
Y47216D01*
D02*
G37*
G36*
X58595D02*
X55142D01*
Y43763D01*
X58595D01*
Y47216D01*
D02*
G37*
G36*
X53047D02*
X49595D01*
Y43763D01*
X53047D01*
Y47216D01*
D02*
G37*
G36*
X48594D02*
X45142D01*
Y43763D01*
X48594D01*
Y47216D01*
D02*
G37*
G36*
X73047Y47216D02*
X69595D01*
Y43763D01*
X73047D01*
Y47216D01*
D02*
G37*
G36*
X68594D02*
X65142D01*
Y43763D01*
X68594D01*
Y47216D01*
D02*
G37*
G36*
X14189Y43949D02*
X9752D01*
Y39512D01*
X14189D01*
Y43949D01*
D02*
G37*
G36*
X8752D02*
X4315D01*
Y39512D01*
X8752D01*
Y43949D01*
D02*
G37*
G36*
X63047Y42763D02*
X59595D01*
Y39311D01*
X63047D01*
Y42763D01*
D02*
G37*
G36*
X58595D02*
X55142D01*
Y39311D01*
X58595D01*
Y42763D01*
D02*
G37*
G36*
X53047Y42763D02*
X49595D01*
Y39311D01*
X53047D01*
Y42763D01*
D02*
G37*
G36*
X48594D02*
X45142D01*
Y39311D01*
X48594D01*
Y42763D01*
D02*
G37*
G36*
X73047Y42763D02*
X69595D01*
Y39311D01*
X73047D01*
Y42763D01*
D02*
G37*
G36*
X68594D02*
X65142D01*
Y39311D01*
X68594D01*
Y42763D01*
D02*
G37*
G36*
X59639Y37397D02*
X58550D01*
X57499Y37115D01*
X56556Y36571D01*
X55787Y35802D01*
X55242Y34859D01*
X54961Y33808D01*
Y32719D01*
X55242Y31668D01*
X55787Y30725D01*
X56556Y29956D01*
X57499Y29411D01*
X58550Y29129D01*
X59639D01*
X60690Y29411D01*
X61633Y29956D01*
X62402Y30725D01*
X62947Y31668D01*
X63228Y32719D01*
Y33808D01*
X62947Y34859D01*
X62402Y35802D01*
X61633Y36571D01*
X60690Y37115D01*
X59639Y37397D01*
D02*
G37*
G36*
X49639Y37397D02*
X48550D01*
X47499Y37115D01*
X46556Y36571D01*
X45787Y35802D01*
X45242Y34859D01*
X44961Y33808D01*
Y32719D01*
X45242Y31668D01*
X45787Y30725D01*
X46556Y29955D01*
X47499Y29411D01*
X48550Y29129D01*
X49639D01*
X50690Y29411D01*
X51633Y29955D01*
X52402Y30725D01*
X52947Y31668D01*
X53228Y32719D01*
Y33808D01*
X52947Y34859D01*
X52402Y35802D01*
X51633Y36571D01*
X50690Y37115D01*
X49639Y37397D01*
D02*
G37*
G36*
X69639Y37397D02*
X68550D01*
X67499Y37115D01*
X66556Y36571D01*
X65787Y35802D01*
X65242Y34859D01*
X64961Y33808D01*
Y32719D01*
X65242Y31668D01*
X65787Y30725D01*
X66556Y29955D01*
X67499Y29411D01*
X68550Y29129D01*
X69639D01*
X70690Y29411D01*
X71633Y29955D01*
X72402Y30725D01*
X72947Y31668D01*
X73228Y32719D01*
Y33808D01*
X72947Y34859D01*
X72402Y35802D01*
X71633Y36571D01*
X70690Y37115D01*
X69639Y37397D01*
D02*
G37*
G36*
X35957Y43346D02*
X34910D01*
X33898Y43075D01*
X32991Y42552D01*
X32251Y41812D01*
X31728Y40905D01*
X31457Y39894D01*
Y38847D01*
X31728Y37835D01*
X32251Y36928D01*
X32991Y36188D01*
X33517Y35885D01*
Y34981D01*
X32991Y34678D01*
X32251Y33938D01*
X31728Y33031D01*
X31457Y32020D01*
Y30973D01*
X31728Y29961D01*
X32251Y29055D01*
X32991Y28314D01*
X33898Y27791D01*
X34910Y27520D01*
X35957D01*
X36968Y27791D01*
X37875Y28314D01*
X38615Y29055D01*
X39138Y29961D01*
X39409Y30973D01*
Y32020D01*
X39138Y33031D01*
X38615Y33938D01*
X37875Y34678D01*
X37350Y34981D01*
Y35885D01*
X37875Y36188D01*
X38615Y36928D01*
X39138Y37835D01*
X39409Y38847D01*
Y39894D01*
X39138Y40905D01*
X38615Y41812D01*
X37875Y42552D01*
X36968Y43075D01*
X35957Y43346D01*
D02*
G37*
G36*
X14370Y29567D02*
X4134D01*
Y19331D01*
X14370D01*
Y29567D01*
D02*
G37*
G36*
X236221Y21419D02*
X235146D01*
Y18925D01*
X239149D01*
X239113Y19200D01*
X238813Y19922D01*
X238338Y20542D01*
X237718Y21018D01*
X236995Y21317D01*
X236221Y21419D01*
D02*
G37*
G36*
X234146D02*
X233071D01*
X232296Y21317D01*
X231574Y21018D01*
X230954Y20542D01*
X230478Y19922D01*
X230179Y19200D01*
X230143Y18925D01*
X234146D01*
Y21419D01*
D02*
G37*
G36*
X239149Y17925D02*
X235146D01*
Y15431D01*
X236221D01*
X236995Y15533D01*
X237718Y15832D01*
X238338Y16308D01*
X238813Y16928D01*
X239113Y17650D01*
X239149Y17925D01*
D02*
G37*
G36*
X234146D02*
X230143D01*
X230179Y17650D01*
X230478Y16928D01*
X230954Y16308D01*
X231574Y15832D01*
X232296Y15533D01*
X233071Y15431D01*
X234146D01*
Y17925D01*
D02*
G37*
G36*
X8858Y14223D02*
X6996D01*
Y10736D01*
X12779D01*
X12709Y11268D01*
X12311Y12230D01*
X11677Y13055D01*
X10852Y13689D01*
X9890Y14087D01*
X8858Y14223D01*
D02*
G37*
G36*
X12779Y9736D02*
X6996D01*
Y6249D01*
X8858D01*
X9890Y6385D01*
X10852Y6784D01*
X11677Y7417D01*
X12311Y8243D01*
X12709Y9204D01*
X12779Y9736D01*
D02*
G37*
G36*
X909631Y-163245D02*
X901615D01*
Y-163531D01*
Y-163817D01*
Y-164104D01*
Y-164390D01*
Y-164676D01*
X901328D01*
Y-164963D01*
Y-165249D01*
Y-165535D01*
Y-165822D01*
Y-166108D01*
Y-166394D01*
X901042D01*
Y-166681D01*
Y-166967D01*
Y-167253D01*
Y-167539D01*
Y-167826D01*
Y-168112D01*
X900756D01*
Y-168398D01*
Y-168685D01*
Y-168971D01*
Y-169257D01*
Y-169544D01*
Y-169830D01*
X900469D01*
Y-170116D01*
Y-170403D01*
Y-170689D01*
Y-170975D01*
Y-171262D01*
Y-171548D01*
Y-171834D01*
X900183D01*
Y-172120D01*
Y-172407D01*
Y-172693D01*
Y-172979D01*
Y-173266D01*
Y-173552D01*
X899897D01*
Y-173838D01*
Y-174125D01*
Y-174411D01*
X907055D01*
Y-174125D01*
X908200D01*
Y-173838D01*
X908772D01*
Y-173552D01*
X909059D01*
Y-173266D01*
X909345D01*
Y-172979D01*
X909631D01*
Y-172693D01*
X909918D01*
Y-172407D01*
Y-172120D01*
X910204D01*
Y-171834D01*
Y-171548D01*
X910490D01*
Y-171262D01*
Y-170975D01*
X910777D01*
Y-170689D01*
Y-170403D01*
Y-170116D01*
Y-169830D01*
X911063D01*
Y-169544D01*
Y-169257D01*
Y-168971D01*
Y-168685D01*
Y-168398D01*
X911349D01*
Y-168112D01*
Y-167826D01*
Y-167539D01*
Y-167253D01*
Y-166967D01*
Y-166681D01*
Y-166394D01*
Y-166108D01*
Y-165822D01*
Y-165535D01*
Y-165249D01*
X911063D01*
Y-164963D01*
Y-164676D01*
X910777D01*
Y-164390D01*
Y-164104D01*
X910490D01*
Y-163817D01*
X910204D01*
Y-163531D01*
X909631D01*
Y-163245D01*
D02*
G37*
%LPD*%
D10*
X1220472Y-240158D02*
Y-200787D01*
X1062992Y-161417D02*
X1338583D01*
X1062992Y-200787D02*
X1338583D01*
X866142Y-240158D02*
X1338583D01*
X866142Y-122047D02*
X1338583D01*
X866142Y-279527D02*
Y-122047D01*
X1062992Y-279527D02*
Y-122047D01*
X-314961Y889764D02*
X1338583D01*
Y-279527D02*
Y889764D01*
X-314961Y-279527D02*
Y889764D01*
Y-279527D02*
X1338583D01*
X1076770Y-266734D02*
X1075786Y-265750D01*
X1073819D01*
X1072835Y-266734D01*
Y-270670D01*
X1073819Y-271654D01*
X1075786D01*
X1076770Y-270670D01*
X1082674Y-265750D02*
X1078738D01*
Y-271654D01*
X1082674D01*
X1078738Y-268702D02*
X1080706D01*
X1088578Y-266734D02*
X1087594Y-265750D01*
X1085626D01*
X1084642Y-266734D01*
Y-270670D01*
X1085626Y-271654D01*
X1087594D01*
X1088578Y-270670D01*
X1090545Y-265750D02*
X1092513D01*
X1091529D01*
Y-271654D01*
X1090545D01*
X1092513D01*
X1095465Y-265750D02*
Y-271654D01*
X1099401D01*
X1101369Y-265750D02*
X1103337D01*
X1102353D01*
Y-271654D01*
X1101369D01*
X1103337D01*
X1106288D02*
Y-267718D01*
X1108256Y-265750D01*
X1110224Y-267718D01*
Y-271654D01*
Y-268702D01*
X1106288D01*
X1112192Y-272638D02*
X1116128D01*
X1118096Y-266734D02*
X1119079Y-265750D01*
X1121047D01*
X1122031Y-266734D01*
Y-270670D01*
X1121047Y-271654D01*
X1119079D01*
X1118096Y-270670D01*
Y-266734D01*
X1123999D02*
X1124983Y-265750D01*
X1126951D01*
X1127935Y-266734D01*
Y-270670D01*
X1126951Y-271654D01*
X1124983D01*
X1123999Y-270670D01*
Y-266734D01*
X1129903Y-271654D02*
Y-270670D01*
X1130887D01*
Y-271654D01*
X1129903D01*
X1134822D02*
Y-265750D01*
X1137774D01*
X1138758Y-266734D01*
Y-268702D01*
X1137774Y-269686D01*
X1134822D01*
X1144662Y-267718D02*
X1141710D01*
X1140726Y-268702D01*
Y-270670D01*
X1141710Y-271654D01*
X1144662D01*
X1146630Y-265750D02*
Y-271654D01*
X1149582D01*
X1150565Y-270670D01*
Y-269686D01*
Y-268702D01*
X1149582Y-267718D01*
X1146630D01*
X1152533Y-265750D02*
Y-271654D01*
X1155485D01*
X1156469Y-270670D01*
Y-266734D01*
X1155485Y-265750D01*
X1152533D01*
X1159421Y-271654D02*
X1161389D01*
X1162373Y-270670D01*
Y-268702D01*
X1161389Y-267718D01*
X1159421D01*
X1158437Y-268702D01*
Y-270670D01*
X1159421Y-271654D01*
X1168276Y-267718D02*
X1165324D01*
X1164340Y-268702D01*
Y-270670D01*
X1165324Y-271654D01*
X1168276D01*
D11*
X187971Y6752D02*
G03*
X190790Y3933I2819J0D01*
G01*
X185687Y3543D02*
G03*
X188094Y2546I2407J2407D01*
G01*
X244431Y22139D02*
G03*
X243513Y19922I2216J-2216D01*
G01*
X232126Y2546D02*
G03*
X243513Y13933I0J11387D01*
G01*
X232126Y3933D02*
G03*
X242126Y13933I0J10000D01*
G01*
X190790Y3933D02*
X232126D01*
X188094Y2546D02*
X232126D01*
X242126Y25591D02*
X242126Y25591D01*
X244431Y22139D02*
X245914Y23622D01*
X243513Y13933D02*
Y19922D01*
X242126Y13933D02*
Y25591D01*
D12*
X0Y-0D02*
X255906D01*
X0D02*
Y70866D01*
X255906Y-0D02*
Y70866D01*
X0D02*
X255906D01*
D13*
X213386Y5582D02*
G03*
X217362Y9559I0J3977D01*
G01*
X191732Y7087D02*
G03*
X195364Y5582I3632J3632D01*
G01*
X213386D01*
X217362Y9559D02*
Y23859D01*
X1224409Y-212598D02*
Y-204727D01*
X1228345D01*
X1229657Y-206039D01*
Y-208663D01*
X1228345Y-209975D01*
X1224409D01*
X1227033D02*
X1229657Y-212598D01*
X1236217D02*
X1233593D01*
X1232281Y-211286D01*
Y-208663D01*
X1233593Y-207351D01*
X1236217D01*
X1237529Y-208663D01*
Y-209975D01*
X1232281D01*
X1240152Y-207351D02*
X1242776Y-212598D01*
X1245400Y-207351D01*
X870079Y-244097D02*
Y-251969D01*
X874014D01*
X875326Y-250657D01*
Y-245409D01*
X874014Y-244097D01*
X870079D01*
X881886Y-251969D02*
X879262D01*
X877950Y-250657D01*
Y-248033D01*
X879262Y-246721D01*
X881886D01*
X883198Y-248033D01*
Y-249345D01*
X877950D01*
X885822Y-251969D02*
X889757D01*
X891069Y-250657D01*
X889757Y-249345D01*
X887134D01*
X885822Y-248033D01*
X887134Y-246721D01*
X891069D01*
X896317Y-254592D02*
X897629D01*
X898941Y-253280D01*
Y-246721D01*
X895005D01*
X893693Y-248033D01*
Y-250657D01*
X895005Y-251969D01*
X898941D01*
X901565D02*
X904189D01*
X902877D01*
Y-246721D01*
X901565D01*
X908124Y-251969D02*
Y-246721D01*
X912060D01*
X913372Y-248033D01*
Y-251969D01*
X919931D02*
X917308D01*
X915996Y-250657D01*
Y-248033D01*
X917308Y-246721D01*
X919931D01*
X921243Y-248033D01*
Y-249345D01*
X915996D01*
X923867Y-246721D02*
Y-251969D01*
Y-249345D01*
X925179Y-248033D01*
X926491Y-246721D01*
X927803D01*
X1066929Y-125987D02*
Y-133858D01*
X1070865D01*
X1072177Y-132546D01*
Y-127299D01*
X1070865Y-125987D01*
X1066929D01*
X1076112Y-133858D02*
X1078736D01*
X1080048Y-132546D01*
Y-129922D01*
X1078736Y-128611D01*
X1076112D01*
X1074801Y-129922D01*
Y-132546D01*
X1076112Y-133858D01*
X1087920Y-128611D02*
X1083984D01*
X1082672Y-129922D01*
Y-132546D01*
X1083984Y-133858D01*
X1087920D01*
X1090544Y-128611D02*
Y-132546D01*
X1091856Y-133858D01*
X1095791D01*
Y-128611D01*
X1098415Y-133858D02*
Y-128611D01*
X1099727D01*
X1101039Y-129922D01*
Y-133858D01*
Y-129922D01*
X1102351Y-128611D01*
X1103663Y-129922D01*
Y-133858D01*
X1110222D02*
X1107598D01*
X1106287Y-132546D01*
Y-129922D01*
X1107598Y-128611D01*
X1110222D01*
X1111534Y-129922D01*
Y-131234D01*
X1106287D01*
X1114158Y-133858D02*
Y-128611D01*
X1118094D01*
X1119406Y-129922D01*
Y-133858D01*
X1123341Y-127299D02*
Y-128611D01*
X1122029D01*
X1124653D01*
X1123341D01*
Y-132546D01*
X1124653Y-133858D01*
X1066929Y-165357D02*
Y-173228D01*
X1072177D01*
X1076112Y-167981D02*
X1078736D01*
X1080048Y-169293D01*
Y-173228D01*
X1076112D01*
X1074801Y-171916D01*
X1076112Y-170605D01*
X1080048D01*
X1082672Y-167981D02*
Y-171916D01*
X1083984Y-173228D01*
X1087920D01*
Y-174540D01*
X1086608Y-175852D01*
X1085296D01*
X1087920Y-173228D02*
Y-167981D01*
X1094479Y-173228D02*
X1091856D01*
X1090544Y-171916D01*
Y-169293D01*
X1091856Y-167981D01*
X1094479D01*
X1095791Y-169293D01*
Y-170605D01*
X1090544D01*
X1098415Y-167981D02*
Y-173228D01*
Y-170605D01*
X1099727Y-169293D01*
X1101039Y-167981D01*
X1102351D01*
X1114158Y-173228D02*
Y-165357D01*
X1119406Y-173228D01*
Y-165357D01*
X1123341Y-167981D02*
X1125965D01*
X1127277Y-169293D01*
Y-173228D01*
X1123341D01*
X1122029Y-171916D01*
X1123341Y-170605D01*
X1127277D01*
X1129901Y-173228D02*
Y-167981D01*
X1131213D01*
X1132525Y-169293D01*
Y-173228D01*
Y-169293D01*
X1133837Y-167981D01*
X1135149Y-169293D01*
Y-173228D01*
X1141708D02*
X1139084D01*
X1137772Y-171916D01*
Y-169293D01*
X1139084Y-167981D01*
X1141708D01*
X1143020Y-169293D01*
Y-170605D01*
X1137772D01*
X1066929Y-204727D02*
Y-212598D01*
X1070865D01*
X1072177Y-211286D01*
Y-206039D01*
X1070865Y-204727D01*
X1066929D01*
X1076112Y-207351D02*
X1078736D01*
X1080048Y-208663D01*
Y-212598D01*
X1076112D01*
X1074801Y-211286D01*
X1076112Y-209975D01*
X1080048D01*
X1083984Y-206039D02*
Y-207351D01*
X1082672D01*
X1085296D01*
X1083984D01*
Y-211286D01*
X1085296Y-212598D01*
X1093167D02*
X1090544D01*
X1089232Y-211286D01*
Y-208663D01*
X1090544Y-207351D01*
X1093167D01*
X1094479Y-208663D01*
Y-209975D01*
X1089232D01*
X1066929Y-244097D02*
Y-251969D01*
X1070865D01*
X1072177Y-250657D01*
Y-245409D01*
X1070865Y-244097D01*
X1066929D01*
X1076112Y-251969D02*
X1078736D01*
X1080048Y-250657D01*
Y-248033D01*
X1078736Y-246721D01*
X1076112D01*
X1074801Y-248033D01*
Y-250657D01*
X1076112Y-251969D01*
X1087920Y-246721D02*
X1083984D01*
X1082672Y-248033D01*
Y-250657D01*
X1083984Y-251969D01*
X1087920D01*
X1090544Y-246721D02*
Y-250657D01*
X1091856Y-251969D01*
X1095791D01*
Y-246721D01*
X1098415Y-251969D02*
Y-246721D01*
X1099727D01*
X1101039Y-248033D01*
Y-251969D01*
Y-248033D01*
X1102351Y-246721D01*
X1103663Y-248033D01*
Y-251969D01*
X1110222D02*
X1107598D01*
X1106287Y-250657D01*
Y-248033D01*
X1107598Y-246721D01*
X1110222D01*
X1111534Y-248033D01*
Y-249345D01*
X1106287D01*
X1114158Y-251969D02*
Y-246721D01*
X1118094D01*
X1119406Y-248033D01*
Y-251969D01*
X1123341Y-245409D02*
Y-246721D01*
X1122029D01*
X1124653D01*
X1123341D01*
Y-250657D01*
X1124653Y-251969D01*
D14*
X1084646Y-179138D02*
Y-192913D01*
X1091533D01*
X1093829Y-190618D01*
Y-188322D01*
X1091533Y-186026D01*
X1084646D01*
X1091533D01*
X1093829Y-183730D01*
Y-181434D01*
X1091533Y-179138D01*
X1084646D01*
X1100717Y-192913D02*
X1105308D01*
X1107604Y-190618D01*
Y-186026D01*
X1105308Y-183730D01*
X1100717D01*
X1098421Y-186026D01*
Y-190618D01*
X1100717Y-192913D01*
X1114492Y-181434D02*
Y-183730D01*
X1112196D01*
X1116788D01*
X1114492D01*
Y-190618D01*
X1116788Y-192913D01*
X1125971Y-181434D02*
Y-183730D01*
X1123675D01*
X1128267D01*
X1125971D01*
Y-190618D01*
X1128267Y-192913D01*
X1137450D02*
X1142042D01*
X1144338Y-190618D01*
Y-186026D01*
X1142042Y-183730D01*
X1137450D01*
X1135154Y-186026D01*
Y-190618D01*
X1137450Y-192913D01*
X1148929D02*
Y-183730D01*
X1151225D01*
X1153521Y-186026D01*
Y-192913D01*
Y-186026D01*
X1155817Y-183730D01*
X1158113Y-186026D01*
Y-192913D01*
X1176480Y-179138D02*
Y-192913D01*
X1185663D01*
X1192550Y-183730D02*
X1197142D01*
X1199438Y-186026D01*
Y-192913D01*
X1192550D01*
X1190255Y-190618D01*
X1192550Y-188322D01*
X1199438D01*
X1204030Y-183730D02*
Y-190618D01*
X1206326Y-192913D01*
X1213213D01*
Y-195209D01*
X1210917Y-197505D01*
X1208621D01*
X1213213Y-192913D02*
Y-183730D01*
X1224692Y-192913D02*
X1220101D01*
X1217805Y-190618D01*
Y-186026D01*
X1220101Y-183730D01*
X1224692D01*
X1226988Y-186026D01*
Y-188322D01*
X1217805D01*
X1231580Y-183730D02*
Y-192913D01*
Y-188322D01*
X1233876Y-186026D01*
X1236172Y-183730D01*
X1238467D01*
X887795Y-257879D02*
Y-273622D01*
X893043Y-268374D01*
X898291Y-273622D01*
Y-257879D01*
X903538Y-273622D02*
X908786D01*
X906162D01*
Y-263127D01*
X903538D01*
X916657Y-273622D02*
Y-263127D01*
X919281D01*
X921905Y-265751D01*
Y-273622D01*
Y-265751D01*
X924529Y-263127D01*
X927153Y-265751D01*
Y-273622D01*
X932400Y-257879D02*
Y-268374D01*
X937648Y-273622D01*
X942896Y-268374D01*
Y-257879D01*
X958638Y-260503D02*
X956015Y-257879D01*
X950767D01*
X948143Y-260503D01*
Y-270998D01*
X950767Y-273622D01*
X956015D01*
X958638Y-270998D01*
Y-265751D01*
X953391D01*
X1242126Y-221133D02*
X1244750Y-218509D01*
X1249998D01*
X1252621Y-221133D01*
Y-231628D01*
X1249998Y-234252D01*
X1244750D01*
X1242126Y-231628D01*
Y-221133D01*
X1257869D02*
X1260493Y-218509D01*
X1265740D01*
X1268364Y-221133D01*
Y-231628D01*
X1265740Y-234252D01*
X1260493D01*
X1257869Y-231628D01*
Y-221133D01*
X1078740Y-222773D02*
X1081036Y-220477D01*
X1085628D01*
X1087924Y-222773D01*
Y-231956D01*
X1085628Y-234252D01*
X1081036D01*
X1078740Y-231956D01*
Y-222773D01*
X1101699Y-220477D02*
X1092515D01*
Y-227364D01*
X1097107Y-225069D01*
X1099403D01*
X1101699Y-227364D01*
Y-231956D01*
X1099403Y-234252D01*
X1094811D01*
X1092515Y-231956D01*
X1106290Y-234252D02*
X1115474Y-225069D01*
X1120065Y-222773D02*
X1122361Y-220477D01*
X1126953D01*
X1129249Y-222773D01*
Y-231956D01*
X1126953Y-234252D01*
X1122361D01*
X1120065Y-231956D01*
Y-222773D01*
X1133840Y-231956D02*
X1136136Y-234252D01*
X1140728D01*
X1143024Y-231956D01*
Y-222773D01*
X1140728Y-220477D01*
X1136136D01*
X1133840Y-222773D01*
Y-225069D01*
X1136136Y-227364D01*
X1143024D01*
X1147616Y-234252D02*
X1156799Y-225069D01*
X1170574Y-234252D02*
X1161391D01*
X1170574Y-225069D01*
Y-222773D01*
X1168278Y-220477D01*
X1163686D01*
X1161391Y-222773D01*
X1175166D02*
X1177462Y-220477D01*
X1182053D01*
X1184349Y-222773D01*
Y-231956D01*
X1182053Y-234252D01*
X1177462D01*
X1175166Y-231956D01*
Y-222773D01*
X1198124Y-234252D02*
X1188941D01*
X1198124Y-225069D01*
Y-222773D01*
X1195828Y-220477D01*
X1191237D01*
X1188941Y-222773D01*
X1202716D02*
X1205012Y-220477D01*
X1209603D01*
X1211899Y-222773D01*
Y-225069D01*
X1209603Y-227364D01*
X1207308D01*
X1209603D01*
X1211899Y-229660D01*
Y-231956D01*
X1209603Y-234252D01*
X1205012D01*
X1202716Y-231956D01*
X1083330Y-142393D02*
X1080706Y-139769D01*
X1075459D01*
X1072835Y-142393D01*
Y-152888D01*
X1075459Y-155512D01*
X1080706D01*
X1083330Y-152888D01*
X1096449Y-155512D02*
X1091201D01*
X1088578Y-152888D01*
Y-147640D01*
X1091201Y-145017D01*
X1096449D01*
X1099073Y-147640D01*
Y-150264D01*
X1088578D01*
X1114816Y-145017D02*
X1106944D01*
X1104321Y-147640D01*
Y-152888D01*
X1106944Y-155512D01*
X1114816D01*
X1120063D02*
X1125311D01*
X1122687D01*
Y-145017D01*
X1120063D01*
X1133183Y-155512D02*
X1138430D01*
X1135806D01*
Y-139769D01*
X1133183D01*
X1146302Y-155512D02*
X1151549D01*
X1148925D01*
Y-145017D01*
X1146302D01*
X1162045D02*
X1167292D01*
X1169916Y-147640D01*
Y-155512D01*
X1162045D01*
X1159421Y-152888D01*
X1162045Y-150264D01*
X1169916D01*
D81*
X88189Y50000D02*
Y61811D01*
X96691D01*
D82*
X49095Y43263D02*
D03*
X59095D02*
D03*
X69095Y43263D02*
D03*
D83*
X49095Y33263D02*
D03*
X59095Y33263D02*
D03*
X69095Y33263D02*
D03*
X160433Y58071D02*
D03*
X170433D02*
D03*
D84*
X88189Y61811D02*
D03*
X71653D02*
D03*
D85*
X234646Y52441D02*
D03*
Y18425D02*
D03*
X249606Y52441D02*
D03*
Y18425D02*
D03*
D86*
X155354Y53150D02*
D03*
X175354D02*
D03*
D87*
X102362Y64567D02*
D03*
X136221D02*
D03*
D88*
X119291D02*
D03*
X111417D02*
D03*
D89*
X127165D02*
D03*
D90*
X6496Y10236D02*
D03*
Y60630D02*
D03*
D91*
X35433Y31496D02*
D03*
Y39370D02*
D03*
Y49213D02*
D03*
D92*
Y21654D02*
D03*
D93*
X49606Y59551D02*
D03*
D94*
X57480D02*
D03*
D95*
X51181Y14764D02*
D03*
X200787Y57087D02*
D03*
D96*
X9252Y44449D02*
D03*
Y24449D02*
D03*
D97*
X64173Y7087D02*
D03*
X66142Y3937D02*
D03*
X67716Y7087D02*
D03*
X94095Y3937D02*
D03*
X96457Y6299D02*
D03*
X91732D02*
D03*
X191732Y7087D02*
D03*
X187971Y6752D02*
D03*
X185687Y3543D02*
D03*
X217362Y23859D02*
D03*
X245914Y23622D02*
D03*
X242126Y25591D02*
D03*
X188189Y22638D02*
D03*
X190945Y24213D02*
D03*
Y27362D02*
D03*
Y30512D02*
D03*
X188189Y25787D02*
D03*
Y28937D02*
D03*
Y32087D02*
D03*
X134239Y9055D02*
D03*
X210296Y18169D02*
D03*
X203996Y8327D02*
D03*
X210296D02*
D03*
X207146Y18169D02*
D03*
Y8327D02*
D03*
Y24075D02*
D03*
X203996D02*
D03*
X210296D02*
D03*
X203996Y18169D02*
D03*
X139209Y38265D02*
D03*
X142028Y35433D02*
D03*
Y51575D02*
D03*
Y41339D02*
D03*
Y47244D02*
D03*
X142283Y30472D02*
D03*
Y27322D02*
D03*
Y24172D02*
D03*
X145039Y28897D02*
D03*
Y25747D02*
D03*
X147795Y24172D02*
D03*
Y27322D02*
D03*
Y30472D02*
D03*
M02*
